<svg width="210" height="208" viewBox="0 0 210 208" fill="none" xmlns="http://www.w3.org/2000/svg">
<path d="M19 53L112.738 5L206 54.5M19 53V151.5L111.786 202.5M19 53L111.786 104M111.786 202.5L206 151.5V54.5M111.786 202.5V104M206 54.5L111.786 104" stroke="#00B6FF" stroke-width="8"/>
<circle cx="19" cy="98" r="19" fill="#00B6FF"/>
<path d="M13.8807 103V91.3636H16.6932V96.0341H21.2784V91.3636H24.0852V103H21.2784V98.3239H16.6932V103H13.8807Z" fill="white"/>
<circle cx="160" cy="30" r="19" fill="#00B6FF"/>
<path d="M156.881 35V23.3636H159.693V32.7159H164.534V35H156.881Z" fill="white"/>
<circle cx="159" cy="179" r="19" fill="#00B6FF"/>
<path d="M156.398 184H153.375L157.301 172.364H161.045L164.972 184H161.949L159.216 175.295H159.125L156.398 184ZM155.994 179.42H162.312V181.557H155.994V179.42Z" fill="white"/>
</svg>
