<?xml version="1.0" encoding="UTF-8"?>
<svg version="1.1" xmlns="http://www.w3.org/2000/svg" width="510" height="489">
<path d="M0 0 C33.6485794 -0.17021857 67.29657334 -0.27168273 100.94556928 -0.28166701 C104.92318579 -0.28290583 108.90080186 -0.28471056 112.87841797 -0.28686523 C114.06616474 -0.28749437 114.06616474 -0.28749437 115.2779064 -0.28813621 C128.07890306 -0.29626448 140.87931469 -0.35017766 153.68009938 -0.42118094 C166.8268653 -0.49307778 179.97304979 -0.51537909 193.119995 -0.49218339 C201.22495771 -0.47943038 209.32792342 -0.50479783 217.43255673 -0.57981863 C223.66021291 -0.63330821 229.8859969 -0.61760101 236.1137085 -0.5768013 C238.65894157 -0.57078144 241.20434191 -0.58679242 243.74926376 -0.62704659 C264.9669561 -0.94212284 264.9669561 -0.94212284 272.66459548 5.71122819 C275.30649115 8.33641105 277.65255252 11.1088346 280 14 C280.66 14.33 281.32 14.66 282 15 C282 15.66 282 16.32 282 17 C282.66 17 283.32 17 284 17 C284 17.66 284 18.32 284 19 C284.55429687 19.23589844 285.10859375 19.47179687 285.6796875 19.71484375 C288.56447242 21.3126455 290.71172032 23.31851009 293.125 25.5625 C296.31507509 28.63719186 296.31507509 28.63719186 300 31 C300 31.66 300 32.32 300 33 C300.66 33 301.32 33 302 33 C302 33.66 302 34.32 302 35 C302.55429687 35.23589844 303.10859375 35.47179687 303.6796875 35.71484375 C306.56447242 37.3126455 308.71172032 39.31851009 311.125 41.5625 C314.31507509 44.63719186 314.31507509 44.63719186 318 47 C318 47.66 318 48.32 318 49 C318.66 49 319.32 49 320 49 C320 49.66 320 50.32 320 51 C320.556875 51.2475 321.11375 51.495 321.6875 51.75 C326.52135359 54.36289383 330.14627406 58.14627406 334 62 C334.99 62.66 335.98 63.32 337 64 C337 64.66 337 65.32 337 66 C337.66 66 338.32 66 339 66 C339 66.66 339 67.32 339 68 C339.66 68 340.32 68 341 68 C341 68.66 341 69.32 341 70 C341.55429687 70.23589844 342.10859375 70.47179687 342.6796875 70.71484375 C345.56447242 72.3126455 347.71172032 74.31851009 350.125 76.5625 C353.31507509 79.63719186 353.31507509 79.63719186 357 82 C357 82.66 357 83.32 357 84 C357.66 84 358.32 84 359 84 C359 84.66 359 85.32 359 86 C359.55429687 86.23589844 360.10859375 86.47179687 360.6796875 86.71484375 C363.56447242 88.3126455 365.71172032 90.31851009 368.125 92.5625 C371.31507509 95.63719186 371.31507509 95.63719186 375 98 C375 98.66 375 99.32 375 100 C375.59425781 100.26425781 376.18851562 100.52851563 376.80078125 100.80078125 C379.08102587 102.04418284 380.43065519 103.29184276 382.1875 105.1875 C385.59806657 108.73152352 389.30901645 111.62444105 393.27734375 114.51953125 C394.13005859 115.25236328 394.13005859 115.25236328 395 116 C395 116.66 395 117.32 395 118 C395.59022949 118.26804443 396.18045898 118.53608887 396.78857422 118.81225586 C399.01766904 120.00948994 400.55874782 121.26251195 402.3828125 123.00390625 C402.99253906 123.57947266 403.60226562 124.15503906 404.23046875 124.74804688 C404.85566406 125.34681641 405.48085938 125.94558594 406.125 126.5625 C407.37568283 127.75332327 408.62820262 128.94222111 409.8828125 130.12890625 C410.43340332 130.65556885 410.98399414 131.18223145 411.55126953 131.72485352 C412.99204489 133.10237804 412.99204489 133.10237804 415 134 C415 134.66 415 135.32 415 136 C415.8353125 136.37125 415.8353125 136.37125 416.6875 136.75 C419.42410913 138.22924818 421.67650869 139.93467439 424 142 C424 142.66 424 143.32 424 144 C424.66 144 425.32 144 426 144 C426 144.66 426 145.32 426 146 C426.86625 146.4021875 426.86625 146.4021875 427.75 146.8125 C430.05550043 148.02929189 432.02056192 149.30333879 434 151 C434 151.66 434 152.32 434 153 C434.55429687 153.23589844 435.10859375 153.47179687 435.6796875 153.71484375 C438.56447242 155.3126455 440.71172032 157.31851009 443.125 159.5625 C446.31507509 162.63719186 446.31507509 162.63719186 450 165 C450 165.66 450 166.32 450 167 C450.66 167 451.32 167 452 167 C452 167.66 452 168.32 452 169 C452.66 169 453.32 169 454 169 C454 169.66 454 170.32 454 171 C454.57492187 171.25652344 455.14984375 171.51304687 455.7421875 171.77734375 C458.21495283 173.11640179 460.04846254 174.67150867 462.125 176.5625 C464.86038045 179.07679216 464.86038045 179.07679216 468 181 C468 181.66 468 182.32 468 183 C468.66 183 469.32 183 470 183 C470 183.66 470 184.32 470 185 C470.66 185 471.32 185 472 185 C472 185.66 472 186.32 472 187 C472.8353125 187.37125 472.8353125 187.37125 473.6875 187.75 C476.42410913 189.22924818 478.67650869 190.93467439 481 193 C481 193.66 481 194.32 481 195 C481.598125 195.28875 482.19625 195.5775 482.8125 195.875 C485 197 485 197 488 199 C488 199.66 488 200.32 488 201 C488.66 201 489.32 201 490 201 C490 201.66 490 202.32 490 203 C490.58426758 203.26498291 491.16853516 203.52996582 491.77050781 203.80297852 C495.61992524 205.86974304 498.57536144 208.96990308 501.75 211.9375 C502.79607422 212.88786133 502.79607422 212.88786133 503.86328125 213.85742188 C504.52199219 214.47037109 505.18070312 215.08332031 505.859375 215.71484375 C506.46233398 216.27292725 507.06529297 216.83101074 507.68652344 217.40600586 C509 219 509 219 509 222 C508.34 222 507.68 222 507 222 C507 222.66 507 223.32 507 224 C506.34 224 505.68 224 505 224 C505 224.66 505 225.32 505 226 C504.34 226 503.68 226 503 226 C503 226.66 503 227.32 503 228 C501.34191655 229.47516321 499.62153953 230.880713 497.875 232.25 C494.55743219 234.89295299 491.37117264 237.4971413 488.4375 240.5625 C487.633125 241.366875 486.82875 242.17125 486 243 C485.34 243 484.68 243 484 243 C484 243.66 484 244.32 484 245 C482.28667246 246.58533702 480.50310953 248.09541215 478.6875 249.5625 C477.70136719 250.36816406 476.71523438 251.17382812 475.69921875 252.00390625 C473 254 473 254 470 255 C470 255.66 470 256.32 470 257 C469.34 257 468.68 257 468 257 C468 257.66 468 258.32 468 259 C467.34 259 466.68 259 466 259 C466 259.66 466 260.32 466 261 C460.52380952 266 460.52380952 266 458 266 C458 266.66 458 267.32 458 268 C452.52380952 273 452.52380952 273 450 273 C450 273.66 450 274.32 450 275 C448.6015625 276.41015625 448.6015625 276.41015625 446.625 278.0625 C442.34165541 281.68804524 438.21627867 285.46199548 434.1015625 289.27734375 C432 291 432 291 430 291 C430 291.66 430 292.32 430 293 C428.40324822 294.41170765 426.74486398 295.75399468 425.0625 297.0625 C420.42096646 300.76857685 416.22100211 304.67049604 412.07421875 308.9140625 C409.18624155 311.81835595 406.205233 314.44889619 403 317 C402.34 317 401.68 317 401 317 C401 317.66 401 318.32 401 319 C400.34 319 399.68 319 399 319 C399 319.66 399 320.32 399 321 C398.34 321 397.68 321 397 321 C397 321.66 397 322.32 397 323 C395.40665761 324.43549726 393.74748918 325.79827327 392.0625 327.125 C387.47211653 330.78425918 383.08032478 334.57467159 378.77734375 338.56640625 C377 340 377 340 375 340 C375 340.66 375 341.32 375 342 C374.34 342 373.68 342 373 342 C373 342.66 373 343.32 373 344 C372.34 344 371.68 344 371 344 C371 344.66 371 345.32 371 346 C370.21625 346.2475 369.4325 346.495 368.625 346.75 C365.88023048 347.72681333 365.88023048 347.72681333 365 350 C364 352 364 352 361.375 353.25 C360.59125 353.4975 359.8075 353.745 359 354 C359 354.66 359 355.32 359 356 C358.34 356 357.68 356 357 356 C357 356.66 357 357.32 357 358 C356.34 358 355.68 358 355 358 C355 358.66 355 359.32 355 360 C354.34 360 353.68 360 353 360 C353 360.66 353 361.32 353 362 C348.52941176 366 348.52941176 366 346 366 C345.773125 366.61875 345.54625 367.2375 345.3125 367.875 C343.62070165 370.61410209 342.00755839 371.05024472 339 372 C339 372.66 339 373.32 339 374 C338.34 374 337.68 374 337 374 C336.7421875 374.59296875 336.484375 375.1859375 336.21875 375.796875 C334.90230105 378.17660965 333.57419218 379.50978792 331.5 381.25 C330.8915625 381.77078125 330.283125 382.2915625 329.65625 382.828125 C328 384 328 384 326 384 C326 384.66 326 385.32 326 386 C325.34 386 324.68 386 324 386 C324 386.66 324 387.32 324 388 C323.34 388 322.68 388 322 388 C322 388.66 322 389.32 322 390 C320.28048026 391.53851766 318.49812503 393.00731759 316.6875 394.4375 C312.83532998 397.45235569 312.83532998 397.45235569 309.26953125 400.78515625 C308 402 308 402 306 402 C306 402.66 306 403.32 306 404 C305.34 404 304.68 404 304 404 C304 404.66 304 405.32 304 406 C303.34 406 302.68 406 302 406 C302 406.66 302 407.32 302 408 C300.33333333 409 298.66666667 410 297 411 C296.154375 411.845625 295.30875 412.69125 294.4375 413.5625 C292.29152806 415.70847194 290.76710359 416.8726615 288 418 C288 418.66 288 419.32 288 420 C287.34 420 286.68 420 286 420 C286 420.66 286 421.32 286 422 C285.34 422 284.68 422 284 422 C284 422.66 284 423.32 284 424 C282.30153429 425.23222022 280.59856018 426.45899293 278.8671875 427.64453125 C275.3601252 430.19045305 272.49396829 433.4770884 269.52627373 436.61867046 C265.19448005 440.15694699 260.50842921 439.67779066 255.14212036 439.60127258 C253.49896782 439.60768077 253.49896782 439.60768077 251.82262027 439.61421841 C248.15102526 439.62245596 244.48057185 439.59494864 240.80908203 439.56762695 C238.17768887 439.56621666 235.54629375 439.56700809 232.91490173 439.56983948 C227.24925031 439.57245909 221.58388717 439.55679455 215.91830826 439.52865028 C207.72692086 439.48798537 199.53567262 439.47499004 191.34419523 439.46871033 C178.05360325 439.45777181 164.76316486 439.4245097 151.47265625 439.37719727 C138.56348437 439.33129017 125.65435423 439.29590391 112.74511719 439.2746582 C111.94916571 439.27334459 111.15321423 439.27203097 110.33314301 439.27067754 C106.34002005 439.26415228 102.3468968 439.25783376 98.35377336 439.25161803 C65.2357371 439.19979881 32.11788911 439.11174567 -1 439 C-1 437 -1 437 0.4609375 435.4921875 C1.09257813 434.95851563 1.72421875 434.42484375 2.375 433.875 C3.31472656 433.06675781 3.31472656 433.06675781 4.2734375 432.2421875 C6 431 6 431 8 431 C8 430.34 8 429.68 8 429 C8.66 429 9.32 429 10 429 C10 428.34 10 427.68 10 427 C10.66 427 11.32 427 12 427 C12 426.34 12 425.68 12 425 C15.46153846 422 15.46153846 422 18 422 C18.33 421.01 18.66 420.02 19 419 C23.45714286 415 23.45714286 415 26 415 C26 414.34 26 413.68 26 413 C26.66 413 27.32 413 28 413 C28 412.34 28 411.68 28 411 C28.66 411 29.32 411 30 411 C30 410.34 30 409.68 30 409 C32.046875 407.125 32.046875 407.125 34.75 405 C35.63171875 404.29875 36.5134375 403.5975 37.421875 402.875 C39.57798064 401.30692317 41.57748621 400.08673516 44 399 C44 398.34 44 397.68 44 397 C44.66 397 45.32 397 46 397 C46 396.34 46 395.68 46 395 C46.66 395 47.32 395 48 395 C48 394.34 48 393.68 48 393 C49.71951974 391.46148234 51.50187497 389.99268241 53.3125 388.5625 C57.16467002 385.54764431 57.16467002 385.54764431 60.73046875 382.21484375 C62 381 62 381 64 381 C64 380.34 64 379.68 64 379 C64.66 379 65.32 379 66 379 C66 378.34 66 377.68 66 377 C66.66 377 67.32 377 68 377 C68 376.34 68 375.68 68 375 C69.71951974 373.46148234 71.50187497 371.99268241 73.3125 370.5625 C77.16467002 367.54764431 77.16467002 367.54764431 80.73046875 364.21484375 C82 363 82 363 84 363 C84 362.34 84 361.68 84 361 C85.36328125 359.625 85.36328125 359.625 87.3125 358 C90.77017549 355.06250578 94.15244741 352.06275384 97.5 349 C101.27788108 345.55469717 105.08313141 342.15049393 108.94921875 338.8046875 C110.53138479 337.41238139 112.09256095 335.99619954 113.64453125 334.5703125 C114.54558594 333.74273437 115.44664063 332.91515625 116.375 332.0625 C117.62410156 330.90427734 117.62410156 330.90427734 118.8984375 329.72265625 C121 328 121 328 123 328 C123 327.34 123 326.68 123 326 C124.6785513 324.50370821 126.41958898 323.07707339 128.1875 321.6875 C131.2166834 319.29902741 134.03527765 316.9640178 136.73828125 314.20703125 C139 312 139 312 141 312 C141 311.34 141 310.68 141 310 C141.66 310 142.32 310 143 310 C143 309.34 143 308.68 143 308 C147.47058824 304 147.47058824 304 150 304 C150.33 303.01 150.66 302.02 151 301 C152.77734375 299.17578125 152.77734375 299.17578125 154.9375 297.3125 C156.00291016 296.37857422 156.00291016 296.37857422 157.08984375 295.42578125 C159 294 159 294 161 294 C161 293.34 161 292.68 161 292 C161.66 292 162.32 292 163 292 C163 291.34 163 290.68 163 290 C164.6171875 288.625 164.6171875 288.625 166.875 287 C171.56851038 283.46693234 175.59298626 279.50175119 179.69921875 275.3125 C182.3476383 272.65059104 184.99699284 270.25225537 188 268 C188.66 268 189.32 268 190 268 C190 267.34 190 266.68 190 266 C190.66 266 191.32 266 192 266 C192 265.34 192 264.68 192 264 C193.51151546 262.64902626 195.08813313 261.37072655 196.6875 260.125 C201.18677102 256.53022161 205.47875404 252.80500884 209.6875 248.875 C213.74245869 245.09206342 217.81711536 241.35436651 222.01953125 237.734375 C225.37290798 234.79769005 228.62997898 231.7533167 231.8984375 228.72265625 C234 227 234 227 236 227 C236 226.34 236 225.68 236 225 C237.65002828 223.64613064 239.3174387 222.31321858 241 221 C241.33 220.34 241.66 219.68 242 219 C241.4225 218.731875 240.845 218.46375 240.25 218.1875 C237.94449957 216.97070811 235.97943808 215.69666121 234 214 C234 213.34 234 212.68 234 212 C233.34 212 232.68 212 232 212 C232 211.34 232 210.68 232 210 C231.34 210 230.68 210 230 210 C230 209.34 230 208.68 230 208 C229.44828125 207.7525 228.8965625 207.505 228.328125 207.25 C225.54863293 205.75765526 223.2185293 203.96327477 220.75 202 C219.85796875 201.29875 218.9659375 200.5975 218.046875 199.875 C217.03367188 198.946875 217.03367188 198.946875 216 198 C216 197.34 216 196.68 216 196 C215.34 196 214.68 196 214 196 C214 195.34 214 194.68 214 194 C213.34 194 212.68 194 212 194 C212 193.34 212 192.68 212 192 C211.44570312 191.76410156 210.89140625 191.52820313 210.3203125 191.28515625 C207.43552758 189.6873545 205.28827968 187.68148991 202.875 185.4375 C199.68492491 182.36280814 199.68492491 182.36280814 196 180 C196 179.34 196 178.68 196 178 C195.34 178 194.68 178 194 178 C194 177.34 194 176.68 194 176 C193.195625 175.6596875 193.195625 175.6596875 192.375 175.3125 C189.17539839 173.54429911 186.70962777 171.46329797 184 169 C184 168.34 184 167.68 184 167 C183.4225 166.731875 182.845 166.46375 182.25 166.1875 C179.94449957 164.97070811 177.97943808 163.69666121 176 162 C176 161.34 176 160.68 176 160 C175.41734375 159.731875 174.8346875 159.46375 174.234375 159.1875 C171.97213399 157.98519009 170.19423682 156.66174087 168.25 155 C167.63640625 154.484375 167.0228125 153.96875 166.390625 153.4375 C165 152 165 152 165 150 C164.34 150 163.68 150 163 150 C163 149.34 163 148.68 163 148 C162.34 148 161.68 148 161 148 C161 147.34 161 146.68 161 146 C160.44957031 145.75636719 159.89914063 145.51273438 159.33203125 145.26171875 C152.16226152 141.3825971 145.91580535 135.20202424 140.33984375 129.3125 C139.01337071 127.87900567 139.01337071 127.87900567 137 127 C137 126.34 137 125.68 137 125 C136.46632812 124.78472656 135.93265625 124.56945312 135.3828125 124.34765625 C132.12342392 122.50423156 129.5718823 119.99986627 126.875 117.4375 C123.23596593 113.81366093 123.23596593 113.81366093 119 111 C119 110.34 119 109.68 119 109 C118.34 109 117.68 109 117 109 C117 108.34 117 107.68 117 107 C116.44570312 106.76410156 115.89140625 106.52820313 115.3203125 106.28515625 C112.43552758 104.6873545 110.28827968 102.68148991 107.875 100.4375 C104.68492491 97.36280814 104.68492491 97.36280814 101 95 C101 94.34 101 93.68 101 93 C100.34 93 99.68 93 99 93 C99 92.34 99 91.68 99 91 C98.43410156 90.7525 97.86820312 90.505 97.28515625 90.25 C94.62161696 88.79302124 92.66926227 87.05895696 90.4375 85 C89.56480469 84.20078125 88.69210938 83.4015625 87.79296875 82.578125 C86.87128906 81.72734375 85.94960937 80.8765625 85 80 C83.08496113 78.24821884 81.16830891 76.49819966 79.25 74.75 C78.34121094 73.91984375 77.43242188 73.0896875 76.49609375 72.234375 C74.47485698 70.4250676 72.42968801 68.69375041 70.3125 67 C69.549375 66.34 68.78625 65.68 68 65 C68 64.34 68 63.68 68 63 C67.44570312 62.76410156 66.89140625 62.52820313 66.3203125 62.28515625 C63.43552758 60.6873545 61.28827968 58.68148991 58.875 56.4375 C55.68492491 53.36280814 55.68492491 53.36280814 52 51 C52 50.34 52 49.68 52 49 C51.34 49 50.68 49 50 49 C50 48.34 50 47.68 50 47 C49.4225 46.731875 48.845 46.46375 48.25 46.1875 C45.94449957 44.97070811 43.97943808 43.69666121 42 42 C42 41.34 42 40.68 42 40 C41.44570313 39.76410156 40.89140625 39.52820313 40.3203125 39.28515625 C37.43552758 37.6873545 35.28827968 35.68148991 32.875 33.4375 C29.68492491 30.36280814 29.68492491 30.36280814 26 28 C26 27.34 26 26.68 26 26 C25.12275269 25.60603027 25.12275269 25.60603027 24.2277832 25.20410156 C21.88938279 23.94021216 20.27064752 22.57021174 18.35546875 20.734375 C17.67806641 20.09113281 17.00066406 19.44789062 16.30273438 18.78515625 C15.60470703 18.11355469 14.90667969 17.44195312 14.1875 16.75 C9.236523 12.01751682 4.24057804 7.41167615 -1 3 C-0.67 2.01 -0.34 1.02 0 0 Z " fill="#FCFCFC" transform="translate(1,50)"/>
<path d="" fill="#000000" transform="translate(0,0)"/>
<path d="" fill="#000000" transform="translate(0,0)"/>
<path d="" fill="#000000" transform="translate(0,0)"/>
<path d="" fill="#000000" transform="translate(0,0)"/>
<path d="" fill="#000000" transform="translate(0,0)"/>
<path d="" fill="#000000" transform="translate(0,0)"/>
<path d="" fill="#000000" transform="translate(0,0)"/>
<path d="" fill="#000000" transform="translate(0,0)"/>
<path d="" fill="#000000" transform="translate(0,0)"/>
<path d="" fill="#000000" transform="translate(0,0)"/>
<path d="" fill="#000000" transform="translate(0,0)"/>
<path d="" fill="#000000" transform="translate(0,0)"/>
<path d="" fill="#000000" transform="translate(0,0)"/>
<path d="" fill="#000000" transform="translate(0,0)"/>
<path d="" fill="#000000" transform="translate(0,0)"/>
<path d="" fill="#000000" transform="translate(0,0)"/>
<path d="" fill="#000000" transform="translate(0,0)"/>
<path d="" fill="#000000" transform="translate(0,0)"/>
<path d="" fill="#000000" transform="translate(0,0)"/>
<path d="" fill="#000000" transform="translate(0,0)"/>
<path d="" fill="#000000" transform="translate(0,0)"/>
<path d="" fill="#000000" transform="translate(0,0)"/>
<path d="" fill="#000000" transform="translate(0,0)"/>
<path d="" fill="#000000" transform="translate(0,0)"/>
<path d="" fill="#000000" transform="translate(0,0)"/>
<path d="" fill="#000000" transform="translate(0,0)"/>
<path d="" fill="#000000" transform="translate(0,0)"/>
<path d="" fill="#000000" transform="translate(0,0)"/>
<path d="" fill="#000000" transform="translate(0,0)"/>
<path d="" fill="#000000" transform="translate(0,0)"/>
<path d="" fill="#000000" transform="translate(0,0)"/>
<path d="" fill="#000000" transform="translate(0,0)"/>
<path d="" fill="#000000" transform="translate(0,0)"/>
</svg>
