<?xml version="1.0" encoding="UTF-8"?>
<svg version="1.1" xmlns="http://www.w3.org/2000/svg" width="609" height="410">
<path d="M0 0 C9.99127779 6.1800354 18.20227577 15.55827938 21.51171875 27.05859375 C23.70375296 40.91538143 21.7879986 53.51441502 14.94921875 65.82421875 C16.16609375 66.19546875 17.38296875 66.56671875 18.63671875 66.94921875 C23.7239818 68.6449731 28.49459606 70.85839326 33.33984375 73.14453125 C37.28619171 74.98103517 41.26743324 76.72045294 45.26171875 78.44921875 C60.44595504 85.06932319 60.44595504 85.06932319 62.94921875 88.82421875 C63.148541 91.30102259 63.23186643 93.66604925 63.22337341 96.14341736 C63.22861009 96.894532 63.23384677 97.64564665 63.23924214 98.41952235 C63.25427893 100.94371611 63.25494808 103.46770783 63.25561523 105.99194336 C63.26323417 107.79868412 63.2716612 109.60542163 63.28083801 111.41215515 C63.30281415 116.32531875 63.31158591 121.2384201 63.31666446 126.1516273 C63.32030387 129.21928764 63.3265417 132.28693156 63.33366585 135.35458565 C63.35816963 146.05109501 63.37121458 156.7475558 63.37475586 167.4440918 C63.3783935 177.4240546 63.40830287 187.40371031 63.45016044 197.38357919 C63.48481353 205.94500092 63.50030342 214.50632061 63.50100189 223.06781203 C63.50179631 228.18431787 63.5106105 233.30051094 63.53899956 238.4169445 C63.56509549 243.22774245 63.56743307 248.03796641 63.55134392 252.84880257 C63.54952274 254.616113 63.55628018 256.3834558 63.57216263 258.1506958 C63.59250252 260.5604958 63.58214516 262.96826443 63.56394958 265.3780365 C63.57714955 266.08027326 63.59034952 266.78251002 63.60394949 267.50602669 C63.54045117 271.17824675 63.21376898 272.55896422 60.57852268 275.20122623 C54.48904973 278.96008002 47.80594897 281.78573139 40.94921875 283.82421875 C41.16578125 284.45585937 41.38234375 285.0875 41.60546875 285.73828125 C45.45242144 298.09839778 45.32928056 310.66838862 39.6953125 322.4453125 C33.26546427 333.95596724 24.44700405 340.65829032 11.94921875 344.82421875 C-0.16003131 345.8100295 -12.58620735 346.73083752 -23.05078125 339.82421875 C-23.74558594 339.4890625 -24.44039063 339.15390625 -25.15625 338.80859375 C-29.29986371 336.65562333 -32.5158949 332.69325581 -35.05078125 328.82421875 C-35.05078125 328.16421875 -35.05078125 327.50421875 -35.05078125 326.82421875 C-35.71078125 326.82421875 -36.37078125 326.82421875 -37.05078125 326.82421875 C-39.05078125 323.82421875 -39.05078125 323.82421875 -39.05078125 320.82421875 C-39.59605469 321.0665625 -40.14132812 321.30890625 -40.703125 321.55859375 C-47.65234375 324.64713542 -54.6015625 327.73567708 -61.55078125 330.82421875 C-62.25283691 331.13649414 -62.95489258 331.44876953 -63.67822266 331.77050781 C-65.16411465 332.43042856 -66.65066572 333.08886953 -68.13818359 333.74511719 C-71.98545923 335.44538478 -75.81507363 337.17396805 -79.62109375 338.96484375 C-81.13932292 339.66796875 -82.65755208 340.37109375 -84.17578125 341.07421875 C-84.93503906 341.43773437 -85.69429687 341.80125 -86.4765625 342.17578125 C-91.17414896 344.32648348 -94.78367977 345.47562706 -100.05078125 344.82421875 C-103.078125 343.6171875 -103.078125 343.6171875 -105.98828125 342.01171875 C-110.61225956 339.55141331 -115.10557092 337.53602232 -120.05078125 335.82421875 C-120.05078125 335.16421875 -120.05078125 334.50421875 -120.05078125 333.82421875 C-120.88254883 333.7252832 -121.71431641 333.62634766 -122.57128906 333.52441406 C-126.5552031 332.72271146 -130.04110268 331.28126992 -133.72265625 329.62109375 C-134.44511536 329.30142639 -135.16757446 328.98175903 -135.91192627 328.65240479 C-137.43621211 327.9764193 -138.95903813 327.29713351 -140.48046875 326.61474609 C-142.77683266 325.58495832 -145.0773595 324.56501854 -147.37890625 323.546875 C-154.33591313 320.45785814 -161.25191227 317.3341618 -168.01196289 313.82861328 C-170.21458133 312.743525 -172.44881651 311.83477822 -174.73828125 310.94921875 C-183.34438859 307.59497505 -191.63024755 303.46296148 -199.95703125 299.4765625 C-200.79242432 299.07783936 -201.62781738 298.67911621 -202.48852539 298.26831055 C-204.11161969 297.4929854 -205.73329148 296.71467267 -207.35327148 295.93286133 C-211.59017571 293.90824608 -215.83128798 292.09849686 -220.24438477 290.49462891 C-226.76736749 288.07374628 -233.0183956 284.87536982 -239.21484375 281.7265625 C-242.10716087 280.30501941 -245.08639619 279.0868272 -248.05078125 277.82421875 C-253.83649554 275.03850446 -253.83649554 275.03850446 -255.05078125 273.82421875 C-255.13946424 270.86716554 -255.16598421 267.93356819 -255.1484375 264.9765625 C-255.14702255 264.09013565 -255.1456076 263.2037088 -255.14414978 262.29042053 C-255.1385334 259.44748621 -255.12597816 256.60462944 -255.11328125 253.76171875 C-255.10826836 251.83919384 -255.10370509 249.91666771 -255.09960938 247.99414062 C-255.08855866 243.27080326 -255.07128308 238.54752417 -255.05078125 233.82421875 C-256.93627686 233.8550354 -256.93627686 233.8550354 -258.85986328 233.88647461 C-268.46924998 234.04353099 -276.31613807 227.22117542 -282.9921875 220.97265625 C-291.7712362 211.81046122 -294.4329988 201.24732854 -294.34887695 188.8215332 C-294.06848055 178.31462689 -290.63081408 170.06421441 -284.05078125 161.82421875 C-283.06078125 161.49421875 -282.07078125 161.16421875 -281.05078125 160.82421875 C-280.76203125 160.22609375 -280.47328125 159.62796875 -280.17578125 159.01171875 C-277.46341418 153.73767168 -272.33418339 151.94917969 -266.98828125 150.13671875 C-265.78042969 149.72035156 -264.57257813 149.30398437 -263.328125 148.875 C-260.90174915 148.09705589 -258.52221836 147.42216335 -256.05078125 146.82421875 C-256.04935623 146.0939447 -256.04793121 145.36367065 -256.04646301 144.61126709 C-256.0286247 137.72507668 -255.9869869 130.8393959 -255.91869068 123.95353317 C-255.8844163 120.41343484 -255.85931021 116.8737682 -255.85522461 113.33349609 C-255.85012291 109.26217453 -255.80502418 105.19214632 -255.7578125 101.12109375 C-255.76174515 99.85118591 -255.7656778 98.58127808 -255.76972961 97.27288818 C-255.74026497 95.50150482 -255.74026497 95.50150482 -255.71020508 93.69433594 C-255.70354324 92.65508972 -255.69688141 91.61584351 -255.6900177 90.54510498 C-254.82212011 86.85093108 -253.17547845 85.85267878 -250.05078125 83.82421875 C-248.4171631 83.0727544 -246.77893175 82.32797895 -245.109375 81.66015625 C-242.70012834 80.68182838 -240.34965992 79.6005189 -237.98828125 78.51171875 C-233.78549606 76.59093698 -229.55545464 74.75204646 -225.30078125 72.94921875 C-218.41904216 70.01601848 -211.64827663 66.87498081 -204.88232422 63.68554688 C-201.9437778 62.30362315 -198.99777966 60.93800725 -196.05078125 59.57421875 C-195.06078125 59.1153125 -194.07078125 58.65640625 -193.05078125 58.18359375 C-190.36846411 56.9681688 -187.67025297 55.79919984 -184.9609375 54.64550781 C-181.3081425 53.07495536 -177.68163103 51.44469868 -174.05078125 49.82421875 C-165.48353703 46.0005829 -165.48353703 46.0005829 -161.3515625 44.2421875 C-158.28627692 42.92538435 -155.2606386 41.54877058 -152.23828125 40.13671875 C-145.32872984 36.93356255 -138.37363355 33.83774309 -131.41015625 30.75390625 C-130.69085938 30.43526611 -129.9715625 30.11662598 -129.23046875 29.78833008 C-127.77806537 29.14590838 -126.32493925 28.50511818 -124.87109375 27.8659668 C-120.84734854 26.09091577 -116.86045895 24.26042259 -112.89453125 22.359375 C-111.1136683 21.53432029 -109.3324147 20.7101083 -107.55078125 19.88671875 C-106.66519531 19.45037109 -105.77960938 19.01402344 -104.8671875 18.56445312 C-100.23701353 16.46693672 -97.17607851 15.31391476 -92.22265625 16.921875 C-90.81706168 17.52207754 -89.42397052 18.15318191 -88.05078125 18.82421875 C-86.65085938 19.42363281 -86.65085938 19.42363281 -85.22265625 20.03515625 C-84.02382813 20.61136719 -84.02382813 20.61136719 -82.80078125 21.19921875 C-76.66984324 24.06032315 -70.38601122 26.45732043 -64.05078125 28.82421875 C-63.88835937 27.77234375 -63.88835937 27.77234375 -63.72265625 26.69921875 C-61.99660344 19.31331837 -58.10454252 11.53269973 -52.05078125 6.82421875 C-51.39078125 6.82421875 -50.73078125 6.82421875 -50.05078125 6.82421875 C-49.72078125 5.83421875 -49.39078125 4.84421875 -49.05078125 3.82421875 C-47.265625 2.54296875 -47.265625 2.54296875 -44.98828125 1.32421875 C-44.25480469 0.92203125 -43.52132812 0.51984375 -42.765625 0.10546875 C-29.18230122 -6.3050783 -13.59695279 -6.90306834 0 0 Z M-101.8203125 31.80078125 C-103.26809082 32.43173706 -103.26809082 32.43173706 -104.74511719 33.07543945 C-106.2886084 33.75546021 -106.2886084 33.75546021 -107.86328125 34.44921875 C-108.9090332 34.90707764 -109.95478516 35.36493652 -111.03222656 35.83666992 C-118.41423473 39.07818002 -125.74954469 42.40465226 -133.05078125 45.82421875 C-138.31780997 48.26783344 -143.57208177 50.66596004 -148.98828125 52.76171875 C-152.5177808 54.14830786 -155.86862193 55.71082514 -159.23828125 57.44921875 C-166.19036321 60.99748915 -173.34519226 64.05276584 -180.5144043 67.13330078 C-187.0653015 69.94875699 -193.56854047 72.85430749 -200.05078125 75.82421875 C-201.88386604 76.65809867 -203.71717097 77.49149496 -205.55078125 78.32421875 C-208.32475898 79.58475849 -211.09843606 80.84593403 -213.87109375 82.109375 C-214.79664063 82.53089844 -215.7221875 82.95242187 -216.67578125 83.38671875 C-217.57425781 83.79664063 -218.47273438 84.2065625 -219.3984375 84.62890625 C-222.6722491 86.10429115 -225.96859479 87.52527875 -229.2734375 88.9296875 C-231.23736631 89.80165184 -231.23736631 89.80165184 -233.05078125 91.82421875 C-227.21405609 94.49536238 -221.36511863 97.13589443 -215.4921875 99.7265625 C-214.36361328 100.22478516 -213.23503906 100.72300781 -212.07226562 101.23632812 C-209.77098775 102.25117738 -207.46890625 103.26420635 -205.16601562 104.27539062 C-198.57840829 107.18776694 -192.09787803 110.23871992 -185.68725586 113.5234375 C-181.57530095 115.55218977 -177.32374713 117.17122124 -173.05078125 118.82421875 C-166.9267583 121.26882192 -160.92898006 123.83140213 -155.05078125 126.82421875 C-144.999048 132.43429754 -144.999048 132.43429754 -134.05078125 134.82421875 C-134.05078125 135.48421875 -134.05078125 136.14421875 -134.05078125 136.82421875 C-132.99761719 137.24832031 -131.94445312 137.67242187 -130.859375 138.109375 C-122.2441921 141.6047065 -113.77867473 145.27512137 -105.41796875 149.34375 C-103.75121094 150.07658203 -103.75121094 150.07658203 -102.05078125 150.82421875 C-100.98085937 151.32308594 -99.9109375 151.82195312 -98.80859375 152.3359375 C-93.01005768 153.08938553 -89.1308147 150.42443337 -84.05078125 147.82421875 C-82.05200846 146.92693077 -80.04662941 146.04422475 -78.03515625 145.17578125 C-77.0188916 144.73121582 -76.00262695 144.28665039 -74.95556641 143.82861328 C-73.39394775 143.14581299 -73.39394775 143.14581299 -71.80078125 142.44921875 C-62.48752885 138.36532533 -53.24724592 134.1634768 -44.05078125 129.82421875 C-35.1691819 125.72206999 -26.2167716 121.77568881 -17.2734375 117.81054688 C-15.77039863 117.14355686 -14.26780598 116.47556053 -12.765625 115.80664062 C-8.59521563 113.9495609 -4.41862703 112.1083124 -0.23168945 110.28881836 C7.54599576 106.9069168 15.26205717 103.4077787 22.94921875 99.82421875 C25.28188062 98.73944037 27.61520694 97.65608955 29.94921875 96.57421875 C30.98046875 96.0946875 32.01171875 95.61515625 33.07421875 95.12109375 C35.67531154 93.94777472 38.29091087 92.86017697 40.94921875 91.82421875 C38.28049812 88.53666436 35.09882118 87.53862641 31.19921875 86.07421875 C24.95055452 83.68093348 18.89481542 81.01519086 12.87402344 78.09667969 C8.57714999 75.89881762 8.57714999 75.89881762 3.94921875 74.82421875 C1.57604313 75.72246559 1.57604313 75.72246559 -0.80078125 77.13671875 C-11.30459953 82.61697177 -23.72129926 83.72845776 -35.30078125 80.82421875 C-46.11658763 76.89119825 -54.54052669 69.90084167 -60.05078125 59.82421875 C-62.06311873 55.27191872 -63.59256942 50.58061785 -65.05078125 45.82421875 C-65.74884951 42.61323904 -65.74884951 42.61323904 -68.640625 41.359375 C-69.74535156 40.87339844 -70.85007813 40.38742188 -71.98828125 39.88671875 C-73.16390625 39.3659375 -74.33953125 38.84515625 -75.55078125 38.30859375 C-79.30938015 36.71454511 -83.08539462 35.18190559 -86.890625 33.703125 C-89.68934244 32.56440633 -92.34965665 31.17478105 -95.05078125 29.82421875 C-97.69058999 29.82421875 -99.3981894 30.74117246 -101.8203125 31.80078125 Z M-27.05078125 30.82421875 C-27.05078125 36.76421875 -27.05078125 42.70421875 -27.05078125 48.82421875 C-23.42078125 48.82421875 -19.79078125 48.82421875 -16.05078125 48.82421875 C-16.05078125 48.16421875 -16.05078125 47.50421875 -16.05078125 46.82421875 C-18.69078125 46.82421875 -21.33078125 46.82421875 -24.05078125 46.82421875 C-24.05078125 41.54421875 -24.05078125 36.26421875 -24.05078125 30.82421875 C-25.04078125 30.82421875 -26.03078125 30.82421875 -27.05078125 30.82421875 Z M-242.05078125 101.82421875 C-242.05078125 117.00421875 -242.05078125 132.18421875 -242.05078125 147.82421875 C-237.10078125 149.80421875 -232.15078125 151.78421875 -227.05078125 153.82421875 C-221.20799174 158.44708518 -216.90972841 162.55342962 -213.05078125 168.82421875 C-212.39078125 168.82421875 -211.73078125 168.82421875 -211.05078125 168.82421875 C-210.92703125 169.52546875 -210.80328125 170.22671875 -210.67578125 170.94921875 C-210.1390532 173.81036957 -210.1390532 173.81036957 -209.03515625 176.33203125 C-207.68726984 181.11381875 -207.68246367 185.62922638 -207.67578125 190.57421875 C-207.65128906 191.51265625 -207.62679687 192.45109375 -207.6015625 193.41796875 C-207.56373505 202.54699444 -210.24641191 209.92826458 -215.61328125 217.32421875 C-216.19207031 218.13890625 -216.77085937 218.95359375 -217.3671875 219.79296875 C-219.05078125 221.82421875 -219.05078125 221.82421875 -222.05078125 223.82421875 C-222.05078125 224.48421875 -222.05078125 225.14421875 -222.05078125 225.82421875 C-222.76105469 226.10136719 -223.47132813 226.37851562 -224.203125 226.6640625 C-228.00733918 228.21392753 -231.7089895 229.96404702 -235.4296875 231.703125 C-238.05078125 232.82421875 -238.05078125 232.82421875 -242.05078125 233.82421875 C-242.05078125 244.71421875 -242.05078125 255.60421875 -242.05078125 266.82421875 C-235.09500459 269.92440006 -235.09500459 269.92440006 -228.10546875 272.9375 C-204.25956998 283.05940308 -204.25956998 283.05940308 -192.92578125 288.94921875 C-188.48051537 291.22558567 -183.78664267 292.86680829 -179.1015625 294.578125 C-176.19658951 295.76466326 -173.73104346 297.20836689 -171.05078125 298.82421875 C-169.23225701 299.5499852 -167.39683625 300.23414823 -165.55078125 300.88671875 C-159.54906217 303.1373634 -153.81745517 305.77959168 -148.05078125 308.57421875 C-139.98722836 312.47826875 -131.85574708 316.14010152 -123.59375 319.60449219 C-116.65576342 322.52147281 -109.90159348 325.66230541 -103.05078125 328.82421875 C-103.05078125 274.37421875 -103.05078125 219.92421875 -103.05078125 163.82421875 C-110.84889903 159.92515986 -118.54856536 156.22220603 -126.55078125 152.82421875 C-133.61666059 149.79444675 -140.5301061 146.65395263 -147.359375 143.125 C-151.47410613 141.13631282 -155.7332952 139.57458943 -160.01171875 137.9765625 C-166.15474997 135.64726403 -172.03573299 132.85881081 -177.890625 129.890625 C-184.40896256 126.67271152 -191.09874055 123.80045065 -197.74145508 120.85058594 C-199.84814521 119.91427921 -201.95362898 118.97533385 -204.05859375 118.03515625 C-212.89330623 114.09293972 -221.74615331 110.19298432 -230.61328125 106.32421875 C-231.63115723 105.87868652 -232.6490332 105.4331543 -233.69775391 104.97412109 C-234.64054199 104.56371582 -235.58333008 104.15331055 -236.5546875 103.73046875 C-237.39845947 103.36244141 -238.24223145 102.99441406 -239.11157227 102.61523438 C-240.8560473 101.76126991 -240.8560473 101.76126991 -242.05078125 101.82421875 Z M42.01171875 104.51171875 C40.83351563 105.0634375 39.6553125 105.61515625 38.44140625 106.18359375 C36.71277344 106.99570313 36.71277344 106.99570313 34.94921875 107.82421875 C27.96072637 111.04967677 20.92609969 114.16432539 13.86987305 117.23803711 C9.64245248 119.07960619 5.42481861 120.94198939 1.21240234 122.81762695 C-0.97008226 123.78832642 -3.15459686 124.75428766 -5.33984375 125.71875 C-12.56876005 128.91428396 -19.77764225 132.13884784 -26.92578125 135.51171875 C-32.20597323 138.00225777 -37.54188372 140.29831328 -42.9453125 142.5078125 C-47.89226747 144.6048236 -52.73701329 146.91488193 -57.59765625 149.203125 C-63.02663335 151.75179638 -68.51431858 154.15447861 -74.01171875 156.55078125 C-74.72658447 156.86273438 -75.4414502 157.1746875 -76.17797852 157.49609375 C-77.60764953 158.11964817 -79.03780673 158.74208938 -80.46850586 159.36328125 C-83.71019659 160.77583074 -86.88637919 162.24201772 -90.05078125 163.82421875 C-90.05078125 218.27421875 -90.05078125 272.72421875 -90.05078125 328.82421875 C-73.33469814 321.60087925 -73.33469814 321.60087925 -56.796875 314.06640625 C-53.21551756 312.44638965 -49.56729227 311.03996796 -45.87890625 309.68359375 C-43.86407491 308.96680236 -43.86407491 308.96680236 -43.05078125 306.82421875 C-43.07140625 305.52484375 -43.09203125 304.22546875 -43.11328125 302.88671875 C-43.17755028 292.86075024 -41.19266415 282.66781743 -34.390625 274.9375 C-32.96450854 273.54509788 -31.51012913 272.18175166 -30.05078125 270.82421875 C-30.05078125 270.16421875 -30.05078125 269.50421875 -30.05078125 268.82421875 C-29.21933594 268.42203125 -29.21933594 268.42203125 -28.37109375 268.01171875 C-26.75665579 267.18547441 -25.16891625 266.3058061 -23.60546875 265.38671875 C-11.24504522 258.17947471 0.78533379 257.226958 14.62109375 260.63671875 C21.51928358 263.0980447 27.94830291 267.45410778 32.94921875 272.82421875 C34.28516655 272.41601248 35.61782043 271.99702768 36.94921875 271.57421875 C37.69171875 271.3421875 38.43421875 271.11015625 39.19921875 270.87109375 C42.89879934 269.46273069 46.40855406 267.59455109 49.94921875 265.82421875 C49.94921875 211.70421875 49.94921875 157.58421875 49.94921875 101.82421875 C46.92155766 101.82421875 44.73819492 103.22466639 42.01171875 104.51171875 Z M-257.05078125 182.82421875 C-257.05078125 188.76421875 -257.05078125 194.70421875 -257.05078125 200.82421875 C-256.39078125 200.49421875 -255.73078125 200.16421875 -255.05078125 199.82421875 C-254.64348897 197.50265278 -254.30639448 195.16734005 -254.05078125 192.82421875 C-251.41078125 192.82421875 -248.77078125 192.82421875 -246.05078125 192.82421875 C-245.72078125 195.13421875 -245.39078125 197.44421875 -245.05078125 199.82421875 C-244.06078125 199.82421875 -243.07078125 199.82421875 -242.05078125 199.82421875 C-242.05078125 194.21421875 -242.05078125 188.60421875 -242.05078125 182.82421875 C-243.04078125 182.82421875 -244.03078125 182.82421875 -245.05078125 182.82421875 C-245.05078125 185.46421875 -245.05078125 188.10421875 -245.05078125 190.82421875 C-248.35078125 190.82421875 -251.65078125 190.82421875 -255.05078125 190.82421875 C-255.05078125 188.18421875 -255.05078125 185.54421875 -255.05078125 182.82421875 C-255.71078125 182.82421875 -256.37078125 182.82421875 -257.05078125 182.82421875 Z M-1.05078125 293.82421875 C-4.67563946 298.31904293 -7.05078125 305.05333716 -7.05078125 310.82421875 C-6.39078125 310.82421875 -5.73078125 310.82421875 -5.05078125 310.82421875 C-4.72078125 309.50421875 -4.39078125 308.18421875 -4.05078125 306.82421875 C-1.08078125 306.82421875 1.88921875 306.82421875 4.94921875 306.82421875 C5.27921875 308.14421875 5.60921875 309.46421875 5.94921875 310.82421875 C6.60921875 310.49421875 7.26921875 310.16421875 7.94921875 309.82421875 C6.29921875 304.54421875 4.64921875 299.26421875 2.94921875 293.82421875 C1.62921875 293.82421875 0.30921875 293.82421875 -1.05078125 293.82421875 Z " fill="#2EA38F" transform="translate(299.05078125,42.17578125)"/>
<path d="M0 0 C0.61230469 0.44859375 1.22460938 0.8971875 1.85546875 1.359375 C4.9079299 3.7085375 6.32418846 5.21545538 7 9 C8.485 9.495 8.485 9.495 10 10 C11.3515625 12.328125 11.3515625 12.328125 12.625 15.25 C13.05039062 16.20390625 13.47578125 17.1578125 13.9140625 18.140625 C17.56018501 27.74120657 17.85438287 41.7540754 13.8359375 51.265625 C13.56007813 51.83796875 13.28421875 52.4103125 13 53 C12.608125 53.99 12.21625 54.98 11.8125 56 C9.11896502 60.4582648 5.76712512 64.40083587 2 68 C1.34 68 0.68 68 0 68 C-0.495 69.485 -0.495 69.485 -1 71 C-3.4765625 72.53515625 -3.4765625 72.53515625 -6.625 74.0625 C-7.64851562 74.56910156 -8.67203125 75.07570313 -9.7265625 75.59765625 C-22.18475077 80.934756 -33.64392687 80.17316125 -45.9765625 75.38671875 C-56.58288281 70.5220628 -64.89739405 61.21450891 -69.21484375 50.35546875 C-73.30995831 38.07012506 -72.65437139 25.59982837 -66.875 14 C-65.94095002 12.31960386 -64.99189223 10.64691541 -64 9 C-63.34 9 -62.68 9 -62 9 C-61.7525 8.4225 -61.505 7.845 -61.25 7.25 C-59.81700012 4.67060021 -58.21575324 2.93878408 -56 1 C-55.34 1 -54.68 1 -54 1 C-54 0.34 -54 -0.32 -54 -1 C-35.55153512 -10.94196811 -17.78640473 -13.67653645 0 0 Z M-32 27 C-32 32.61 -32 38.22 -32 44 C-28.37 44 -24.74 44 -21 44 C-21 43.67 -21 43.34 -21 43 C-23.31 42.67 -25.62 42.34 -28 42 C-28.33 37.05 -28.66 32.1 -29 27 C-29.99 27 -30.98 27 -32 27 Z " fill="#2DA38F" transform="translate(579,167)"/>
<path d="M0 0 C1.44959106 0.01921509 1.44959106 0.01921509 2.9284668 0.03881836 C16.96674096 0.43821881 25.84436512 5.79925501 35.375 15.875 C44.5959757 26.63892781 44.90605597 38.96248877 44.0625 52.5 C42.29139717 64.22229924 35.41012974 73.53965878 26.0625 80.5 C15.28016164 87.818582 2.99494101 89.22973122 -9.80859375 87 C-15.65491557 85.39476967 -20.78281681 82.65008417 -25.9375 79.5 C-25.9375 78.84 -25.9375 78.18 -25.9375 77.5 C-26.515 77.4278125 -27.0925 77.355625 -27.6875 77.28125 C-33.04064239 75.42252 -36.67738651 68.78687264 -39.30859375 64.01171875 C-43.84473867 54.12524905 -45.08863805 40.8565853 -41.625 30.375 C-41.0820805 29.07498175 -40.52130107 27.78217992 -39.9375 26.5 C-39.545625 25.345 -39.15375 24.19 -38.75 23 C-33.42675351 12.72062746 -24.36101379 5.46478726 -13.70214844 1.33129883 C-9.13129021 -0.04310706 -4.74283577 -0.09574369 0 0 Z M-6.9375 35.5 C-6.9375 41.44 -6.9375 47.38 -6.9375 53.5 C-5.9475 53.5 -4.9575 53.5 -3.9375 53.5 C-3.9375 50.86 -3.9375 48.22 -3.9375 45.5 C-0.9675 45.83 2.0025 46.16 5.0625 46.5 C5.3925 48.81 5.7225 51.12 6.0625 53.5 C6.7225 53.5 7.3825 53.5 8.0625 53.5 C8.0625 47.56 8.0625 41.62 8.0625 35.5 C7.4025 35.5 6.7425 35.5 6.0625 35.5 C5.7325 37.81 5.4025 40.12 5.0625 42.5 C0.6075 42.995 0.6075 42.995 -3.9375 43.5 C-3.9375 40.86 -3.9375 38.22 -3.9375 35.5 C-4.9275 35.5 -5.9175 35.5 -6.9375 35.5 Z " fill="#2BA38E" transform="translate(550.9375,37.5)"/>
<path d="M0 0 C0.7425 0.61875 1.485 1.2375 2.25 1.875 C2.25 2.535 2.25 3.195 2.25 3.875 C3.13171875 4.25978516 3.13171875 4.25978516 4.03125 4.65234375 C10.81728275 8.39183011 14.86591092 15.73555043 17.25 22.875 C20.42543843 34.99745076 19.28206539 48.95330584 13.25 59.875 C9.2853449 66.23576947 4.51728956 70.81677488 -1.75 74.875 C-2.34941406 75.26558594 -2.94882812 75.65617187 -3.56640625 76.05859375 C-13.58982034 82.18027618 -25.3967148 81.98364889 -36.72265625 80.48046875 C-43.81531102 78.69288909 -50.11350099 74.43649662 -55.75 69.875 C-55.75 69.215 -55.75 68.555 -55.75 67.875 C-56.41 67.875 -57.07 67.875 -57.75 67.875 C-67.32686688 57.83297102 -69.15743588 46.37457769 -68.96875 33.05078125 C-68.79732511 28.23052753 -67.8251246 24.23008983 -65.75 19.875 C-65.31494141 18.85212891 -65.31494141 18.85212891 -64.87109375 17.80859375 C-59.95162352 6.96105898 -50.6612882 -0.55748401 -39.75 -5.125 C-26.77978652 -8.52425669 -11.41620448 -7.01318797 0 0 Z M-26.75 28.875 C-29.3466562 31.4716562 -29.85687691 33.81315375 -30.9375 37.3125 C-31.30230469 38.46621094 -31.66710937 39.61992187 -32.04296875 40.80859375 C-33.03426999 43.89100872 -33.03426999 43.89100872 -31.75 46.875 C-31.399375 46.215 -31.04875 45.555 -30.6875 44.875 C-28.75 42.875 -28.75 42.875 -25.0625 42.625 C-23.969375 42.7075 -22.87625 42.79 -21.75 42.875 C-21.09 44.195 -20.43 45.515 -19.75 46.875 C-19.09 46.875 -18.43 46.875 -17.75 46.875 C-18.33652352 42.38506131 -19.5143538 38.64956816 -21.3125 34.5 C-21.76753906 33.44039063 -22.22257813 32.38078125 -22.69140625 31.2890625 C-23.04074219 30.49242187 -23.39007812 29.69578125 -23.75 28.875 C-24.74 28.875 -25.73 28.875 -26.75 28.875 Z " fill="#2CA38E" transform="translate(576.75,285.125)"/>
<path d="M0 0 C0.66 0 1.32 0 2 0 C2.2473996 21.53983561 2.46596908 43.07979193 2.65021229 64.62026405 C2.73643187 74.62187166 2.83208664 84.62322285 2.94995117 94.62451172 C3.05265709 103.34156155 3.13766246 112.05857347 3.20140952 120.77599847 C3.23578251 125.39195798 3.27901964 130.00745058 3.34345436 134.62309647 C3.40383437 138.96832487 3.4405279 143.31311243 3.45913696 147.65871429 C3.47012392 149.25271137 3.48973173 150.84667619 3.51865196 152.44044876 C3.55689841 154.61969561 3.56391047 156.79693766 3.56330872 158.97647095 C3.58128368 160.80438643 3.58128368 160.80438643 3.59962177 162.66922951 C2.80002906 167.11079573 1.04442977 168.72091526 -2 172 C-2.85279338 174.21735439 -2.85279338 174.21735439 -3 176 C-2.34 176 -1.68 176 -1 176 C-1 176.66 -1 177.32 -1 178 C-6.44876003 176.27933894 -11.71169451 174.15294651 -17 172 C-17 171.34 -17 170.68 -17 170 C-17.83176758 169.90106445 -18.66353516 169.80212891 -19.52050781 169.70019531 C-23.50442185 168.89849271 -26.99032143 167.45705117 -30.671875 165.796875 C-31.39433411 165.47720764 -32.11679321 165.15754028 -32.86114502 164.82818604 C-34.38543086 164.15220055 -35.90825688 163.47291476 -37.4296875 162.79052734 C-39.72605141 161.76073957 -42.02657825 160.74079979 -44.328125 159.72265625 C-51.28513188 156.63363939 -58.20113102 153.50994305 -64.96118164 150.00439453 C-67.16380008 148.91930625 -69.39803526 148.01055947 -71.6875 147.125 C-80.29360734 143.7707563 -88.5794663 139.63874273 -96.90625 135.65234375 C-97.74164307 135.25362061 -98.57703613 134.85489746 -99.43774414 134.4440918 C-101.06083844 133.66876665 -102.68251023 132.89045392 -104.30249023 132.10864258 C-108.53939446 130.08402733 -112.78050673 128.27427811 -117.19360352 126.67041016 C-123.71036259 124.25183732 -129.96292092 121.06264529 -136.1484375 117.90625 C-138.03125478 116.9847023 -139.93681354 116.1726076 -141.875 115.375 C-145 114 -145 114 -147 112 C-146.67 111.01 -146.34 110.02 -146 109 C-145.01 109 -144.02 109 -143 109 C-141.515 108.505 -141.515 108.505 -140 108 C-140 95.46 -140 82.92 -140 70 C-139.67 70 -139.34 70 -139 70 C-137.82001577 81.12815896 -138.22834204 91.86438211 -139 103 C-137.64841797 103.18175781 -137.64841797 103.18175781 -136.26953125 103.3671875 C-133.25409069 103.95082116 -131.3410845 104.65994969 -128.6875 106.125 C-124.09865344 108.52670401 -119.42492958 110.50958126 -114.625 112.4375 C-106.84122531 115.58160486 -99.36887566 119.16245735 -91.9453125 123.0859375 C-86.8041015 125.75254071 -81.48943437 127.76733236 -76.05078125 129.75390625 C-73.14580826 130.94044451 -70.68026221 132.38414814 -68 134 C-66.18147576 134.72576645 -64.346055 135.40992948 -62.5 136.0625 C-56.49830401 138.313136 -50.76656057 140.95517041 -45 143.75 C-36.91252288 147.66882554 -28.75575946 151.3352621 -20.45507812 154.78027344 C-13.77125673 157.57909004 -7.53324661 160.7333767 -1 164 C-0.67 109.88 -0.34 55.76 0 0 Z " fill="#3AA793" transform="translate(196,206)"/>
<path d="M0 0 C6.11493082 1.92492083 11.97297701 4.17158675 17.8125 6.8125 C18.59729736 7.1636084 19.38209473 7.5147168 20.19067383 7.87646484 C24.58049703 9.85542074 28.90315518 11.92477413 33.1875 14.125 C39.92720461 17.57542543 46.94207733 20.28096422 54 23 C54 23.66 54 24.32 54 25 C54.79019531 25.07734375 55.58039063 25.1546875 56.39453125 25.234375 C61.17106977 26.24867787 65.27699897 28.19317186 69.6875 30.25 C70.57147461 30.65532959 71.45544922 31.06065918 72.36621094 31.47827148 C74.11640746 32.28127449 75.86531013 33.08710461 77.61279297 33.89599609 C80.65126233 35.30118718 83.69995949 36.68262509 86.75 38.0625 C88.16685959 38.70790997 89.58362198 39.35353388 91 40 C90.53980469 40.57234375 90.07960938 41.1446875 89.60546875 41.734375 C88.06673481 43.90582436 87.18648782 45.75289194 86.3125 48.25 C85.879375 49.4875 85.44625 50.725 85 52 C81.50063363 50.6202408 78.04658334 49.1634949 74.60546875 47.64453125 C73.05980225 46.96318115 73.05980225 46.96318115 71.48291016 46.26806641 C70.3954248 45.78772949 69.30793945 45.30739258 68.1875 44.8125 C65.92845259 43.81625391 63.66933802 42.8201601 61.41015625 41.82421875 C60.31203613 41.34001465 59.21391602 40.85581055 58.08251953 40.35693359 C54.10054341 38.60405673 50.11328581 36.86345812 46.125 35.125 C41.81566853 33.24592786 37.52283496 31.33590443 33.25 29.375 C27.5612189 26.76872433 21.78882838 24.37412682 16 22 C16.48082031 21.23300781 16.96164063 20.46601563 17.45703125 19.67578125 C18.98386602 17.02797918 19.57148179 14.99962748 20 12 C19.34 12 18.68 12 18 12 C18 11.34 18 10.68 18 10 C16.02 10.66 14.04 11.32 12 12 C12 11.01 12 10.02 12 9 C11.34 8.67 10.68 8.34 10 8 C10 7.01 10 6.02 10 5 C7.36 5 4.72 5 2 5 C1.34 3.35 0.68 1.7 0 0 Z " fill="#39A693" transform="translate(111,154)"/>
<path d="M0 0 C0.66 0 1.32 0 2 0 C2.2473996 21.53983561 2.46596908 43.07979193 2.65021229 64.62026405 C2.73643187 74.62187166 2.83208664 84.62322285 2.94995117 94.62451172 C3.05265709 103.34156155 3.13766246 112.05857347 3.20140952 120.77599847 C3.23578251 125.39195798 3.27901964 130.00745058 3.34345436 134.62309647 C3.40383437 138.96832487 3.4405279 143.31311243 3.45913696 147.65871429 C3.47012392 149.25271137 3.48973173 150.84667619 3.51865196 152.44044876 C3.55689841 154.61969561 3.56391047 156.79693766 3.56330872 158.97647095 C3.57529202 160.19508127 3.58727533 161.4136916 3.59962177 162.66922951 C2.80002906 167.11079573 1.04442977 168.72091526 -2 172 C-2.85279338 174.21735439 -2.85279338 174.21735439 -3 176 C-2.34 176 -1.68 176 -1 176 C-1 176.66 -1 177.32 -1 178 C-6.44876003 176.27933894 -11.71169451 174.15294651 -17 172 C-17 171.34 -17 170.68 -17 170 C-17.85609863 169.89115479 -18.71219727 169.78230957 -19.59423828 169.67016602 C-23.21380818 168.95792807 -26.13433287 167.79637323 -29.4921875 166.27734375 C-30.69101563 165.73916016 -31.88984375 165.20097656 -33.125 164.64648438 C-34.37506953 164.0769755 -35.62506867 163.50731212 -36.875 162.9375 C-38.1481471 162.36328798 -39.42158211 161.78971387 -40.6953125 161.21679688 C-43.7997627 159.81744243 -46.90113264 158.41166392 -50 157 C-47.96038497 156.4794288 -45.94884037 155.99097183 -43.875 155.625 C-41.61263271 155.08405139 -41.61263271 155.08405139 -40 152 C-40.33 151.34 -40.66 150.68 -41 150 C-34.25510415 148.2240588 -29.99461768 150.20680097 -23.8125 153.0625 C-22.94302734 153.44599609 -22.07355469 153.82949219 -21.17773438 154.22460938 C-14.3359917 157.27599645 -7.70947549 160.64526226 -1 164 C-0.67 109.88 -0.34 55.76 0 0 Z " fill="#51B09F" transform="translate(196,206)"/>
<path d="M0 0 C0.33 0 0.66 0 1 0 C1.33 54.12 1.66 108.24 2 164 C12.23 159.38 22.46 154.76 33 150 C37.62 148.02 42.24 146.04 47 144 C47 144.99 47 145.98 47 147 C46.34 147 45.68 147 45 147 C45 148.65 45 150.3 45 152 C44.01 152 43.02 152 42 152 C42 152.66 42 153.32 42 154 C42.66 154 43.32 154 44 154 C44 155.32 44 156.64 44 158 C44.66 158.33 45.32 158.66 46 159 C36.9019552 163.63821892 27.62142735 167.90139676 18.26171875 171.984375 C16.5422268 172.75651301 14.83915465 173.56533645 13.14453125 174.390625 C12.16871094 174.85984375 11.19289062 175.3290625 10.1875 175.8125 C8.84751953 176.47185547 8.84751953 176.47185547 7.48046875 177.14453125 C4.78224518 178.07509969 3.62665453 177.99800627 1 177 C1.66 176.67 2.32 176.34 3 176 C3.90343684 174.11736119 3.90343684 174.11736119 4.625 171.9375 C4.88539063 171.20402344 5.14578125 170.47054687 5.4140625 169.71484375 C5.60742188 169.14894531 5.80078125 168.58304688 6 168 C4.02 167.34 2.04 166.68 0 166 C0 111.22 0 56.44 0 0 Z " fill="#5BB2A2" transform="translate(208,206)"/>
<path d="M0 0 C0.33 0 0.66 0 1 0 C2.17998423 11.12815896 1.77165796 21.86438211 1 33 C2.35158203 33.18175781 2.35158203 33.18175781 3.73046875 33.3671875 C6.74590931 33.95082116 8.6589155 34.65994969 11.3125 36.125 C16.78236072 39.00211328 22.44140244 41.27125787 28.19848633 43.50048828 C29.25845825 43.92177002 29.25845825 43.92177002 30.33984375 44.3515625 C31.28911743 44.72015381 31.28911743 44.72015381 32.25756836 45.09619141 C34 46 34 46 37 49 C34.03 49 31.06 49 28 49 C28.99 50.32 29.98 51.64 31 53 C30.01 53.33 29.02 53.66 28 54 C28 54.66 28 55.32 28 56 C29.5811292 56.50692692 31.16501383 57.00526443 32.75 57.5 C33.63171875 57.7784375 34.5134375 58.056875 35.421875 58.34375 C38.20267529 59.16445285 38.20267529 59.16445285 42 59 C41.67 60.32 41.34 61.64 41 63 C41.99 63.33 42.98 63.66 44 64 C41 65 41 65 38.36328125 63.890625 C36.85314453 63.07851563 36.85314453 63.07851563 35.3125 62.25 C31.27183566 60.14245925 27.34750849 58.28927015 23.05859375 56.7734375 C16.46196064 54.29500609 10.12294952 51.10646395 3.8515625 47.90625 C1.96874522 46.9847023 0.06318646 46.1726076 -1.875 45.375 C-5 44 -5 44 -7 42 C-6.67 41.01 -6.34 40.02 -6 39 C-5.01 39 -4.02 39 -3 39 C-1.515 38.505 -1.515 38.505 0 38 C0 25.46 0 12.92 0 0 Z " fill="#43AD96" transform="translate(56,276)"/>
<path d="M0 0 C0 0.99 0 1.98 0 3 C-0.66 3 -1.32 3 -2 3 C-2 4.65 -2 6.3 -2 8 C-2.99 8 -3.98 8 -5 8 C-5 8.66 -5 9.32 -5 10 C-4.34 10 -3.68 10 -3 10 C-3 11.32 -3 12.64 -3 14 C-2.34 14.33 -1.68 14.66 -1 15 C-5.23802439 17.15753969 -9.49017561 19.26598225 -13.8125 21.25 C-14.54082031 21.58515625 -15.26914063 21.9203125 -16.01953125 22.265625 C-18 23 -18 23 -21 23 C-21 19 -21 19 -19 17 C-20.65 16.67 -22.3 16.34 -24 16 C-24 15.01 -24 14.02 -24 13 C-24.5775 13.350625 -25.155 13.70125 -25.75 14.0625 C-28.39786506 15.16577711 -29.33185326 14.80156509 -32 14 C-31.11646851 13.62246582 -31.11646851 13.62246582 -30.21508789 13.23730469 C-27.49727492 12.07553215 -24.77988578 10.91277138 -22.0625 9.75 C-20.67321289 9.15638672 -20.67321289 9.15638672 -19.25585938 8.55078125 C-9.54186296 4.46425805 -9.54186296 4.46425805 0 0 Z " fill="#38A693" transform="translate(255,350)"/>
<path d="M0 0 C6.20793219 1.94807282 12.13789377 4.2537914 18.0625 6.9375 C18.81337891 7.27201172 19.56425781 7.60652344 20.33789062 7.95117188 C25.29330551 10.17404165 30.15671214 12.54262239 35 15 C33.68 15.33 32.36 15.66 31 16 C31 16.66 31 17.32 31 18 C32.32 18.33 33.64 18.66 35 19 C34.67 19.66 34.34 20.32 34 21 C34.66 21.66 35.32 22.32 36 23 C35.01 23.99 34.02 24.98 33 26 C33.66 26 34.32 26 35 26 C35.495 27.98 35.495 27.98 36 30 C29.04217652 27.93145788 22.0476562 25.0317708 16 21 C16.66 20.67 17.32 20.34 18 20 C18.74751373 16.51745287 18.74751373 16.51745287 19 13 C18.67 12.67 18.34 12.34 18 12 C18 11.34 18 10.68 18 10 C16.02 10.66 14.04 11.32 12 12 C12 11.01 12 10.02 12 9 C11.34 8.67 10.68 8.34 10 8 C10 7.01 10 6.02 10 5 C7.36 5 4.72 5 2 5 C1.34 3.35 0.68 1.7 0 0 Z " fill="#37A794" transform="translate(111,154)"/>
<path d="M0 0 C-1.98 0.66 -3.96 1.32 -6 2 C-6 3.32 -6 4.64 -6 6 C-5.195625 6.28875 -4.39125 6.5775 -3.5625 6.875 C-1 8 -1 8 0 10 C3.465 9.505 3.465 9.505 7 9 C4.88669539 11.11330461 3.27718692 11.91306985 0.5703125 13.12890625 C-0.30753906 13.52400391 -1.18539063 13.91910156 -2.08984375 14.32617188 C-3.00894531 14.73416016 -3.92804688 15.14214844 -4.875 15.5625 C-5.78636719 15.97435547 -6.69773437 16.38621094 -7.63671875 16.81054688 C-17.85573128 21.38142291 -17.85573128 21.38142291 -22 20 C-22 19.34 -22 18.68 -22 18 C-20.68 17.67 -19.36 17.34 -18 17 C-18.020625 16.030625 -18.04125 15.06125 -18.0625 14.0625 C-18 11 -18 11 -17 10 C-19.64 10 -22.28 10 -25 10 C-21.15602717 6.65741493 -16.64448145 4.94420154 -12 3 C-10.64455078 2.41605469 -10.64455078 2.41605469 -9.26171875 1.8203125 C-8.37097656 1.44648438 -7.48023438 1.07265625 -6.5625 0.6875 C-5.73878906 0.34074219 -4.91507812 -0.00601563 -4.06640625 -0.36328125 C-2 -1 -2 -1 0 0 Z " fill="#3FA895" transform="translate(280,162)"/>
<path d="M0 0 C5.69139902 1.09698167 10.74567937 2.54053077 16 5 C16 5.99 16 6.98 16 8 C16.99 8 17.98 8 19 8 C19 8.66 19 9.32 19 10 C19.99 10.33 20.98 10.66 22 11 C22 11.66 22 12.32 22 13 C22.66 13 23.32 13 24 13 C23.67 14.32 23.34 15.64 23 17 C23.66 17 24.32 17 25 17 C25.33 16.34 25.66 15.68 26 15 C26 15.99 26 16.98 26 18 C25.34 18 24.68 18 24 18 C24 18.66 24 19.32 24 20 C17.00545663 19.74703279 11.66943086 19.31369739 6 15 C5.0625 12.75 5.0625 12.75 5 11 C4.34 11 3.68 11 3 11 C3.33 10.34 3.66 9.68 4 9 C4 8.34 4 7.68 4 7 C4 6.01 4 5.02 4 4 C3.01 3.67 2.02 3.34 1 3 C0.67 2.01 0.34 1.02 0 0 Z " fill="#2FA390" transform="translate(141,169)"/>
<path d="M0 0 C4.78277356 1.67932153 9.45318423 3.47866676 14.08203125 5.546875 C13.42203125 7.526875 12.76203125 9.506875 12.08203125 11.546875 C11.42203125 11.546875 10.76203125 11.546875 10.08203125 11.546875 C10.41203125 13.526875 10.74203125 15.506875 11.08203125 17.546875 C11.74203125 17.546875 12.40203125 17.546875 13.08203125 17.546875 C13.08203125 18.206875 13.08203125 18.866875 13.08203125 19.546875 C13.74203125 19.876875 14.40203125 20.206875 15.08203125 20.546875 C12.18397748 19.90132732 9.62779763 18.98381071 6.9296875 17.75 C6.14352051 17.39357422 5.35735352 17.03714844 4.54736328 16.66992188 C3.73380371 16.29931641 2.92024414 15.92871094 2.08203125 15.546875 C0.47731278 14.8316476 -1.12815309 14.11809464 -2.734375 13.40625 C-7.12890625 11.453125 -11.5234375 9.5 -15.91796875 7.546875 C-15.58796875 6.886875 -15.25796875 6.226875 -14.91796875 5.546875 C-10.91796875 5.546875 -10.91796875 5.546875 -8.66796875 7.546875 C-7.80171875 8.536875 -7.80171875 8.536875 -6.91796875 9.546875 C-4.91813341 8.75569596 -4.91813341 8.75569596 -2.91796875 7.546875 C-2.58796875 6.556875 -2.25796875 5.566875 -1.91796875 4.546875 C-2.90796875 4.876875 -3.89796875 5.206875 -4.91796875 5.546875 C-4.54296875 3.109375 -4.54296875 3.109375 -3.91796875 0.546875 C-1.91796875 -0.453125 -1.91796875 -0.453125 0 0 Z " fill="#40A997" transform="translate(96.91796875,147.453125)"/>
<path d="M0 0 C-0.33 0.99 -0.66 1.98 -1 3 C-1.03874921 4.66621616 -1.0450286 6.33394172 -1 8 C-2.65 8 -4.3 8 -6 8 C-6 8.66 -6 9.32 -6 10 C-5.01 10 -4.02 10 -3 10 C-3 10.66 -3 11.32 -3 12 C-8.93661416 14.41862058 -14.68878497 15.9007105 -21 17 C-21.33 15.68 -21.66 14.36 -22 13 C-21.34 13 -20.68 13 -20 13 C-19.67 12.01 -19.34 11.02 -19 10 C-20.32 9.34 -21.64 8.68 -23 8 C-23 7.01 -23 6.02 -23 5 C-6.50293734 -2.34105744 -6.50293734 -2.34105744 0 0 Z " fill="#36A490" transform="translate(264,172)"/>
<path d="M0 0 C0.66 0 1.32 0 2 0 C2.391875 1.134375 2.78375 2.26875 3.1875 3.4375 C4.58610882 7.20339051 4.58610882 7.20339051 7.6875 7.9375 C8.450625 7.958125 9.21375 7.97875 10 8 C6.87011484 10.58065051 3.75926147 12.06349449 0 13.5625 C-4.15865568 15.21658445 -4.15865568 15.21658445 -8.1875 17.15234375 C-10 18 -10 18 -13 18 C-13 17.34 -13 16.68 -13 16 C-12.01 16 -11.02 16 -10 16 C-10.185625 15.443125 -10.37125 14.88625 -10.5625 14.3125 C-11.07551165 11.600867 -10.6640724 9.65628961 -10 7 C-12.6666419 5.66667905 -14.16680303 6.32897967 -17 7 C-17 7.99 -17 8.98 -17 10 C-20.63 10.66 -24.26 11.32 -28 12 C-26.64477752 9.28955505 -24.81402596 8.96288748 -22.10791016 7.86523438 C-19.8586178 6.94196681 -17.65652536 5.94127464 -15.44921875 4.921875 C-14.27842773 4.38820313 -14.27842773 4.38820313 -13.08398438 3.84375 C-11.46425249 3.10450806 -9.84711518 2.35955868 -8.23242188 1.609375 C-7.45833984 1.25875 -6.68425781 0.908125 -5.88671875 0.546875 C-4.83810669 0.06492676 -4.83810669 0.06492676 -3.76831055 -0.42675781 C-2 -1 -2 -1 0 0 Z " fill="#39A793" transform="translate(109,101)"/>
<path d="M0 0 C3.875 1.75 3.875 1.75 5 4 C5.09538065 6.4182322 5.13017463 8.80747983 5.12025452 11.2258606 C5.12110894 11.97894308 5.12196337 12.73202556 5.12284368 13.50792873 C5.12449764 16.04453488 5.11897848 18.58107567 5.11352539 21.11767578 C5.11324347 22.9307556 5.11340134 24.74383553 5.1139679 26.55691528 C5.1142557 31.49053374 5.10836173 36.42412805 5.10139394 41.35774088 C5.09515755 46.50939723 5.09455637 51.66105408 5.09336853 56.81271362 C5.09025606 66.57329296 5.08204379 76.33386115 5.07201904 86.09443557 C5.0608553 97.20430534 5.05534679 108.31417564 5.05032361 119.42404962 C5.03986112 142.28270594 5.02226329 165.14135234 5 188 C4.67 188 4.34 188 4 188 C4 127.61 4 67.22 4 5 C3.01 5 2.02 5 1 5 C0.67 3.35 0.34 1.7 0 0 Z " fill="#6EC29E" transform="translate(357,127)"/>
<path d="M0 0 C6.92292169 0.51460708 12.56310413 2.08855792 18.84765625 5.01953125 C19.00390625 7.4140625 19.00390625 7.4140625 18.84765625 10.01953125 C16.34765625 11.70703125 16.34765625 11.70703125 13.84765625 13.01953125 C13.84765625 13.67953125 13.84765625 14.33953125 13.84765625 15.01953125 C12.85765625 15.01953125 11.86765625 15.01953125 10.84765625 15.01953125 C10.84765625 13.69953125 10.84765625 12.37953125 10.84765625 11.01953125 C10.20828125 11.26703125 9.56890625 11.51453125 8.91015625 11.76953125 C4.29920956 12.14593506 0.89522912 10.07418153 -3.15234375 8.01953125 C-3.15234375 6.69953125 -3.15234375 5.37953125 -3.15234375 4.01953125 C-2.16234375 4.01953125 -1.17234375 4.01953125 -0.15234375 4.01953125 C-1.14234375 3.02953125 -2.13234375 2.03953125 -3.15234375 1.01953125 C-2.15234375 0.01953125 -2.15234375 0.01953125 0 0 Z " fill="#31A490" transform="translate(86.15234375,323.98046875)"/>
<path d="M0 0 C0.66 0 1.32 0 2 0 C2.74926071 3.66305234 3.2380014 6.42355152 2 10 C2.66 10 3.32 10 4 10 C3.67 10.99 3.34 11.98 3 13 C2.85013589 14.9906444 2.75171962 16.98535391 2.68359375 18.98046875 C2.64169922 20.14384766 2.59980469 21.30722656 2.55664062 22.50585938 C2.51732422 23.72080078 2.47800781 24.93574219 2.4375 26.1875 C2.39431641 27.41404297 2.35113281 28.64058594 2.30664062 29.90429688 C2.2004691 32.93608381 2.09842048 35.96795315 2 39 C2.66 39 3.32 39 4 39 C4 39.99 4 40.98 4 42 C2.68 41.34 1.36 40.68 0 40 C0 26.8 0 13.6 0 0 Z " fill="#56AC9F" transform="translate(44,276)"/>
<path d="M0 0 C1.33709047 2.67418095 1.07904171 4.65004393 1.02172852 7.64306641 C0.99158409 9.41467636 0.99158409 9.41467636 0.96083069 11.22207642 C0.93379562 12.50230682 0.90676056 13.78253723 0.87890625 15.1015625 C0.85529526 16.40829926 0.83168427 17.71503601 0.80735779 19.06137085 C0.74450236 22.53684125 0.67543996 26.01216184 0.60510254 29.48748779 C0.5344322 33.03325575 0.46960747 36.57912999 0.40429688 40.125 C0.2752658 47.08344886 0.1396799 54.04175698 0 61 C-1.98 61.495 -1.98 61.495 -4 62 C-4 62.66 -4 63.32 -4 64 C-6.31 64 -8.62 64 -11 64 C-11.66 65.32 -12.32 66.64 -13 68 C-13 67.34 -13 66.68 -13 66 C-14.32 65.67 -15.64 65.34 -17 65 C-15.25093469 64.35163958 -13.50070781 63.70641216 -11.75 63.0625 C-10.28820313 62.52302734 -10.28820313 62.52302734 -8.796875 61.97265625 C-6.53157749 61.18486424 -4.32654387 60.55985185 -2 60 C-1.98969254 59.26306412 -1.97938507 58.52612823 -1.96876526 57.76686096 C-1.87095357 50.83578924 -1.76846284 43.90480098 -1.66066074 36.97387791 C-1.60539973 33.41027032 -1.55197482 29.84665457 -1.50268555 26.28295898 C-1.44599468 22.18984755 -1.38142682 18.0968939 -1.31640625 14.00390625 C-1.29133751 12.07581871 -1.29133751 12.07581871 -1.26576233 10.10877991 C-1.24581711 8.92763107 -1.22587189 7.74648224 -1.20532227 6.52954102 C-1.18977798 5.48363297 -1.1742337 4.43772491 -1.15821838 3.36012268 C-1 1 -1 1 0 0 Z " fill="#78BCB2" transform="translate(45,129)"/>
<path d="M0 0 C0.99 0.66 1.98 1.32 3 2 C2.67 2.66 2.34 3.32 2 4 C0.34080104 4.36871088 -1.32774271 4.69595322 -3 5 C-5.74858021 5.63215742 -5.74858021 5.63215742 -8 7 C-8.97433515 10.47426748 -9.14528346 13.83910997 -9.20532227 17.43286133 C-9.22526749 18.49358353 -9.24521271 19.55430573 -9.26576233 20.64717102 C-9.28247482 21.7806749 -9.29918732 22.91417877 -9.31640625 24.08203125 C-9.33718735 25.25134689 -9.35796844 26.42066254 -9.37937927 27.62541199 C-9.44467414 31.35438253 -9.50366659 35.08342247 -9.5625 38.8125 C-9.60570429 41.34310609 -9.64931919 43.8737052 -9.69335938 46.40429688 C-9.800335 52.60279158 -9.90213848 58.80135506 -10 65 C-10.33 65 -10.66 65 -11 65 C-11.0463682 57.63723408 -11.08189196 50.27449971 -11.10362434 42.91161728 C-11.11405552 39.49262072 -11.12820243 36.07372416 -11.15087891 32.65478516 C-11.17679333 28.722994 -11.18647832 24.79124315 -11.1953125 20.859375 C-11.20563507 19.63321472 -11.21595764 18.40705444 -11.22659302 17.14373779 C-11.22674408 16.00285706 -11.22689514 14.86197632 -11.22705078 13.68652344 C-11.231492 12.68280701 -11.23593323 11.67909058 -11.24050903 10.6449585 C-10.99130932 7.90442571 -10.48327488 6.29995134 -9 4 C-6.94140625 2.6640625 -6.94140625 2.6640625 -4.5625 1.625 C-3.78003906 1.26664062 -2.99757813 0.90828125 -2.19140625 0.5390625 C-1.46824219 0.36117187 -0.74507812 0.18328125 0 0 Z " fill="#389D8A" transform="translate(56,123)"/>
<path d="M0 0 C0.99 0.66 1.98 1.32 3 2 C2.01 2.33 1.02 2.66 0 3 C-0.33 3.99 -0.66 4.98 -1 6 C-3.4765625 7.53515625 -3.4765625 7.53515625 -6.625 9.0625 C-7.64851562 9.56910156 -8.67203125 10.07570312 -9.7265625 10.59765625 C-15.94573891 13.26195736 -21.16819725 14.24481067 -27.9375 14.125 C-28.62134766 14.11597656 -29.30519531 14.10695312 -30.00976562 14.09765625 C-31.67333287 14.07438958 -33.33671631 14.03853167 -35 14 C-35 13.67 -35 13.34 -35 13 C-29.06 12.505 -29.06 12.505 -23 12 C-23 11.67 -23 11.34 -23 11 C-20.03 11 -17.06 11 -14 11 C-14 10.34 -14 9.68 -14 9 C-13.01 9 -12.02 9 -11 9 C-10.67 8.34 -10.34 7.68 -10 7 C-5.5 4 -5.5 4 -3 4 C-3 3.34 -3 2.68 -3 2 C-2.01 2 -1.02 2 0 2 C0 1.34 0 0.68 0 0 Z " fill="#5BB0A1" transform="translate(579,232)"/>
<path d="M0 0 C0 1.32 0 2.64 0 4 C0.30404678 5.67225729 0.63128912 7.34080104 1 9 C-1.875 9.125 -1.875 9.125 -5 9 C-7.35953094 6.64046906 -7.49141413 5.22104383 -8 2 C-9.65 2.33 -11.3 2.66 -13 3 C-11.13268754 0.61398964 -10.05536515 0.01413578 -7.0625 -0.75 C-4.31738172 -0.97409129 -2.56926391 -0.88936059 0 0 Z " fill="#2CA18C" transform="translate(119,100)"/>
<path d="M0 0 C0.33 0 0.66 0 1 0 C1 6.6 1 13.2 1 20 C-0.32 20 -1.64 20 -3 20 C-3.33 17.36 -3.66 14.72 -4 12 C-5.98 12 -7.96 12 -10 12 C-10 14.31 -10 16.62 -10 19 C-10.66 19 -11.32 19 -12 19 C-12 16.03 -12 13.06 -12 10 C-5.06640625 9.90234375 -5.06640625 9.90234375 -3 10 C-2 11 -2 11 -1.9375 14.5625 C-1.958125 15.696875 -1.97875 16.83125 -2 18 C-1.34 18 -0.68 18 0 18 C0 12.06 0 6.12 0 0 Z " fill="#6FB7AB" transform="translate(559,73)"/>
<path d="M0 0 C0 0.99 0 1.98 0 3 C1.65 3.33 3.3 3.66 5 4 C5 4.99 5 5.98 5 7 C4.34 6.67 3.68 6.34 3 6 C3 6.66 3 7.32 3 8 C1.35 8.66 -0.3 9.32 -2 10 C-2.33 9.01 -2.66 8.02 -3 7 C-5.00016466 5.79117904 -5.00016466 5.79117904 -7 5 C-7 3.68 -7 2.36 -7 1 C-4.53721199 -0.231394 -2.7204945 -0.07159196 0 0 Z " fill="#28A28C" transform="translate(281,163)"/>
<path d="M0 0 C1.73046875 1.0703125 1.73046875 1.0703125 2.73046875 3.0703125 C-1.4454087 4.46227165 -3.40427901 2.89354469 -7.26953125 1.0703125 C-7.26953125 0.4103125 -7.26953125 -0.2496875 -7.26953125 -0.9296875 C-8.25953125 -0.5996875 -9.24953125 -0.2696875 -10.26953125 0.0703125 C-10.92953125 -0.2596875 -11.58953125 -0.5896875 -12.26953125 -0.9296875 C-14.98215241 -1.1619521 -17.67726251 -1.34904985 -20.39453125 -1.4921875 C-21.14863281 -1.53537109 -21.90273438 -1.57855469 -22.6796875 -1.62304688 C-24.54275013 -1.7291707 -26.40611649 -1.82993751 -28.26953125 -1.9296875 C-28.26953125 -1.2696875 -28.26953125 -0.6096875 -28.26953125 0.0703125 C-30.90953125 0.0703125 -33.54953125 0.0703125 -36.26953125 0.0703125 C-28.98662796 -7.21259079 -8.46940294 -3.63551478 0 0 Z " fill="#6FBBAD" transform="translate(571.26953125,40.9296875)"/>
<path d="M0 0 C3.20726252 4.81089378 3.11575794 8.49814236 3.0625 14.25 C3.05347656 15.51328125 3.04445313 16.7765625 3.03515625 18.078125 C3.02355469 19.04234375 3.01195312 20.0065625 3 21 C2.34 21 1.68 21 1 21 C0.96261719 20.37351562 0.92523438 19.74703125 0.88671875 19.1015625 C0.82097656 18.28429687 0.75523437 17.46703125 0.6875 16.625 C0.62949219 15.81289063 0.57148438 15.00078125 0.51171875 14.1640625 C0.17009472 11.62078662 0.17009472 11.62078662 -3 10 C-3 8.68 -3 7.36 -3 6 C-2.34 6 -1.68 6 -1 6 C-1.20625 5.38125 -1.4125 4.7625 -1.625 4.125 C-1.74875 3.42375 -1.8725 2.7225 -2 2 C-1.34 1.34 -0.68 0.68 0 0 Z M-2 12 C-1.01 12.495 -1.01 12.495 0 13 C-0.99 13.495 -0.99 13.495 -2 14 C-2 13.34 -2 12.68 -2 12 Z " fill="#44A791" transform="translate(340,330)"/>
<path d="M0 0 C3.875 1.75 3.875 1.75 5 4 C5.0902835 5.63417595 5.11755658 7.27202837 5.11352539 8.90869141 C5.11344986 9.92959869 5.11337433 10.95050598 5.11329651 12.00234985 C5.10813522 13.10759003 5.10297394 14.2128302 5.09765625 15.3515625 C5.0962413 16.4807309 5.09482635 17.60989929 5.09336853 18.77328491 C5.08775744 22.39054988 5.07520303 26.00775364 5.0625 29.625 C5.05748643 32.07291577 5.05292328 34.52083252 5.04882812 36.96875 C5.0377844 42.97918766 5.02103544 48.98958946 5 55 C4.67 55 4.34 55 4 55 C4 38.5 4 22 4 5 C3.01 5 2.02 5 1 5 C0.67 3.35 0.34 1.7 0 0 Z " fill="#80AAAA" transform="translate(357,127)"/>
<path d="M0 0 C4.28243491 4.28243491 3.23713254 10.34370408 3.25976562 16.00537109 C3.1964819 22.05748616 2.37135332 27.38215105 0 33 C-1.32 32.01 -2.64 31.02 -4 30 C-3.34 30 -2.68 30 -2 30 C0.66641331 24.01631659 0.22314726 18.03477075 0.125 11.625 C0.11597656 10.50738281 0.10695313 9.38976562 0.09765625 8.23828125 C0.07418346 5.49196538 0.04134728 2.74609528 0 0 Z " fill="#70B5A9" transform="translate(318,67)"/>
<path d="M0 0 C5.10444257 1.58990834 10.07533007 3.35175744 15 5.4375 C16.3921875 6.02337891 16.3921875 6.02337891 17.8125 6.62109375 C20 8 20 8 20.8125 10.16015625 C20.874375 10.76730469 20.93625 11.37445313 21 12 C20.01 12 19.02 12 18 12 C18 11.34 18 10.68 18 10 C16.02 10.66 14.04 11.32 12 12 C12 11.01 12 10.02 12 9 C11.34 8.67 10.68 8.34 10 8 C10 7.01 10 6.02 10 5 C7.36 5 4.72 5 2 5 C1.34 3.35 0.68 1.7 0 0 Z " fill="#4AA997" transform="translate(111,154)"/>
<path d="M0 0 C0.66 0 1.32 0 2 0 C3.13016601 5.02296004 2.77916092 8.97874074 2 14 C4.31 14 6.62 14 9 14 C9 15.65 9 17.3 9 19 C5.04 19 1.08 19 -3 19 C-3 18.67 -3 18.34 -3 18 C0.63 18 4.26 18 8 18 C8 17.34 8 16.68 8 16 C5.36 16 2.72 16 0 16 C0 10.72 0 5.44 0 0 Z " fill="#4FA695" transform="translate(275,73)"/>
<path d="M0 0 C0.99 0.495 0.99 0.495 2 1 C2.02578125 2.11117187 2.0515625 3.22234375 2.078125 4.3671875 C2.37185121 12.93532562 2.91102875 20.25948233 7 28 C6.01 28 5.02 28 4 28 C3.51801537 26.75108386 3.03954323 25.50081192 2.5625 24.25 C2.29566406 23.55390625 2.02882813 22.8578125 1.75390625 22.140625 C0.04821994 17.29753641 -0.12119069 12.86060435 -0.0625 7.75 C-0.05798828 7.00492188 -0.05347656 6.25984375 -0.04882812 5.4921875 C-0.03709246 3.6614236 -0.0191585 1.83070127 0 0 Z " fill="#6CB3A7" transform="translate(5,225)"/>
<path d="M0 0 C0.33 0.99 0.66 1.98 1 3 C5.16138263 3.08159574 8.9472484 2.98248524 13 2 C12.01 3.485 12.01 3.485 11 5 C11.33 5.33 11.66 5.66 12 6 C12.36162029 7.32594105 12.69728039 8.65938457 13 10 C6.04217652 7.93145788 -0.9523438 5.0317708 -7 1 C-2.25 0 -2.25 0 0 0 Z " fill="#46AB9B" transform="translate(134,174)"/>
<path d="M0 0 C-11.09079384 5.00173056 -23.30977041 5.81721783 -35 2 C-31.90257383 1.08445376 -29.19567029 0.90601442 -25.97265625 0.97265625 C-24.53696289 0.99102539 -24.53696289 0.99102539 -23.07226562 1.00976562 C-21.0695879 1.04485472 -19.06697552 1.08390215 -17.06445312 1.12695312 C-16.10603516 1.13791016 -15.14761719 1.14886719 -14.16015625 1.16015625 C-12.85510132 1.18541382 -12.85510132 1.18541382 -11.52368164 1.21118164 C-7.0444024 0.83635562 -4.47671194 -1.65804146 0 0 Z " fill="#6DB1A7" transform="translate(571,121)"/>
<path d="M0 0 C-0.99 0.33 -1.98 0.66 -3 1 C-3.33 1.99 -3.66 2.98 -4 4 C-6.84412317 5.84993852 -9.40490751 6.32984478 -12.75 6.625 C-13.54921875 6.69976562 -14.3484375 6.77453125 -15.171875 6.8515625 C-15.77515625 6.90054688 -16.3784375 6.94953125 -17 7 C-17 7.99 -17 8.98 -17 10 C-20.63 10.66 -24.26 11.32 -28 12 C-26.64477752 9.28955505 -24.81402596 8.96288748 -22.10791016 7.86523438 C-19.8586178 6.94196681 -17.65652536 5.94127464 -15.44921875 4.921875 C-14.27842773 4.38820313 -14.27842773 4.38820313 -13.08398438 3.84375 C-11.46425249 3.10450806 -9.84711518 2.35955868 -8.23242188 1.609375 C-7.45833984 1.25875 -6.68425781 0.908125 -5.88671875 0.546875 C-4.83810669 0.06492676 -4.83810669 0.06492676 -3.76831055 -0.42675781 C-2 -1 -2 -1 0 0 Z " fill="#6DB6AB" transform="translate(109,101)"/>
<path d="M0 0 C0 0.99 0 1.98 0 3 C1.65 3 3.3 3 5 3 C5 3.99 5 4.98 5 6 C4.34 6 3.68 6 3 6 C3 7.65 3 9.3 3 11 C1.68 11 0.36 11 -1 11 C-0.9071875 9.824375 -0.9071875 9.824375 -0.8125 8.625 C-0.874375 7.75875 -0.93625 6.8925 -1 6 C-1.99 5.34 -2.98 4.68 -4 4 C-4 3.01 -4 2.02 -4 1 C-2 0 -2 0 0 0 Z " fill="#2BA28D" transform="translate(231,363)"/>
<path d="M0 0 C5.31155488 0.4485313 9.94274213 1.23584028 15 3 C16.32 3 17.64 3 19 3 C18.67 4.32 18.34 5.64 18 7 C18.99 7.33 19.98 7.66 21 8 C18 9 18 9 15.29296875 7.85546875 C14.26816406 7.30503906 13.24335937 6.75460937 12.1875 6.1875 C8.1822983 4.05037717 4.34464734 2.33131944 0 1 C0 0.67 0 0.34 0 0 Z " fill="#4DAD9B" transform="translate(79,332)"/>
<path d="M0 0 C0 0.33 0 0.66 0 1 C-5.54134881 2.86687153 -10.42270714 3.30731763 -16.25 3.25 C-17.05179688 3.25773437 -17.85359375 3.26546875 -18.6796875 3.2734375 C-22.62092724 3.2602561 -24.65238893 3.23174071 -28 1 C-26.69804688 0.93941406 -25.39609375 0.87882812 -24.0546875 0.81640625 C-22.32811601 0.73195438 -20.601554 0.64730874 -18.875 0.5625 C-18.0190625 0.52318359 -17.163125 0.48386719 -16.28125 0.44335938 C-12.64505546 0.26154965 -9.16244782 0.0283081 -5.5703125 -0.59765625 C-3 -1 -3 -1 0 0 Z " fill="#58AB9E" transform="translate(568,363)"/>
<path d="M0 0 C2.475 0.495 2.475 0.495 5 1 C5.103125 1.639375 5.20625 2.27875 5.3125 2.9375 C5.539375 3.618125 5.76625 4.29875 6 5 C6.99 5.33 7.98 5.66 9 6 C10 8 10 8 11 10 C12.62746694 11.70496537 14.28891311 13.37897032 16 15 C11.93645091 15 10.94829419 13.47015238 8 10.75 C7.13375 9.96109375 6.2675 9.1721875 5.375 8.359375 C3.32652682 6.32437862 1.57039254 4.41757799 0 2 C0 1.34 0 0.68 0 0 Z " fill="#61B3A5" transform="translate(11,255)"/>
<path d="M0 0 C0.66 0.33 1.32 0.66 2 1 C0.68 1.33 -0.64 1.66 -2 2 C-2 2.66 -2 3.32 -2 4 C-3.609375 5.1484375 -3.609375 5.1484375 -5.75 6.375 C-8.36713419 7.92316389 -10.13506671 9.14257042 -12.25 11.375 C-12.8275 11.91125 -13.405 12.4475 -14 13 C-16.25 12.75 -16.25 12.75 -18 12 C-16.71034824 10.62437146 -15.37310707 9.29233607 -14 8 C-13.34 8 -12.68 8 -12 8 C-12 7.34 -12 6.68 -12 6 C-10.04669132 4.96958487 -8.08718472 3.9509107 -6.125 2.9375 C-5.03445313 2.36902344 -3.94390625 1.80054688 -2.8203125 1.21484375 C-1.88960937 0.81394531 -0.95890625 0.41304687 0 0 Z " fill="#5EB1A1" transform="translate(537,160)"/>
<path d="M0 0 C3 1 3 1 4.25 3.3125 C5.0275526 6.09873015 4.98726527 7.33438378 4 10 C2.02 10 0.04 10 -2 10 C-1.54177532 6.53058454 -1.10868317 3.32604951 0 0 Z " fill="#70B7A9" transform="translate(550,316)"/>
<path d="M0 0 C2.29370117 0.35522461 2.29370117 0.35522461 5 1 C6.76452396 1.1400363 8.53219044 1.2440078 10.30078125 1.31640625 C11.27724609 1.35830078 12.25371094 1.40019531 13.25976562 1.44335938 C14.77086914 1.50233398 14.77086914 1.50233398 16.3125 1.5625 C17.85260742 1.62727539 17.85260742 1.62727539 19.42382812 1.69335938 C21.94909569 1.79906825 24.47445562 1.90116468 27 2 C27 2.33 27 2.66 27 3 C22.72880183 4.03669859 18.56040743 4.19159065 14.1875 4.1875 C13.12499023 4.1884668 13.12499023 4.1884668 12.04101562 4.18945312 C7.02417101 4.13868469 2.74242947 3.58080982 -2 2 C-1.34 1.34 -0.68 0.68 0 0 Z " fill="#67B4A6" transform="translate(263,121)"/>
<path d="M0 0 C3 1 3 1 4.1875 3.375 C5 6 5 6 5 9 C3.02 9.33 1.04 9.66 -1 10 C-2.31223496 6.06329512 -1.24296256 3.87511856 0 0 Z " fill="#8ECCC0" transform="translate(298,338)"/>
<path d="M0 0 C2 2 2 2 2.125 4.625 C2.08375 5.40875 2.0425 6.1925 2 7 C0.68 7.33 -0.64 7.66 -2 8 C-2.33 6.35 -2.66 4.7 -3 3 C-5.31 3 -7.62 3 -10 3 C-10.33 4.32 -10.66 5.64 -11 7 C-12.32 7 -13.64 7 -15 7 C-14.67 6.01 -14.34 5.02 -14 4 C-13.67 4.33 -13.34 4.66 -13 5 C-12.649375 4.34 -12.29875 3.68 -11.9375 3 C-10 1 -10 1 -6.3125 0.75 C-5.219375 0.8325 -4.12625 0.915 -3 1 C-2.34 2.65 -1.68 4.3 -1 6 C-0.34 6 0.32 6 1 6 C0.67 4.02 0.34 2.04 0 0 Z " fill="#68B4A2" transform="translate(558,326)"/>
<path d="M0 0 C-0.33 0.99 -0.66 1.98 -1 3 C-1.03874921 4.66621616 -1.0450286 6.33394172 -1 8 C-3.31 8.33 -5.62 8.66 -8 9 C-8 8.34 -8 7.68 -8 7 C-7.34 7 -6.68 7 -6 7 C-6.185625 6.401875 -6.37125 5.80375 -6.5625 5.1875 C-7 3 -7 3 -6 0 C-3.50907189 -1.24546405 -2.58919267 -0.7767578 0 0 Z " fill="#2AA28D" transform="translate(264,172)"/>
<path d="M0 0 C0.33 0 0.66 0 1 0 C1.05421223 3.04190863 1.09377548 6.08283999 1.125 9.125 C1.15013672 10.40890625 1.15013672 10.40890625 1.17578125 11.71875 C1.21306681 16.56587293 0.89580643 20.44707905 -1 25 C-1.33 25 -1.66 25 -2 25 C-1.86040799 21.77053202 -1.71221895 18.54151309 -1.5625 15.3125 C-1.52318359 14.40048828 -1.48386719 13.48847656 -1.44335938 12.54882812 C-1.40146484 11.66259766 -1.35957031 10.77636719 -1.31640625 9.86328125 C-1.27974854 9.05157471 -1.24309082 8.23986816 -1.20532227 7.40356445 C-0.98962569 4.87855515 -0.54100548 2.47399303 0 0 Z " fill="#63AFA1" transform="translate(594,313)"/>
<path d="M0 0 C11.21954674 9.17103399 11.21954674 9.17103399 12 16 C11.34 16 10.68 16 10 16 C10 14.68 10 13.36 10 12 C8.68 11.67 7.36 11.34 6 11 C6 9.68 6 8.36 6 7 C4.824375 6.7834375 4.824375 6.7834375 3.625 6.5625 C1 6 1 6 -1 5 C-0.67 3.35 -0.34 1.7 0 0 Z " fill="#61B5A4" transform="translate(579,47)"/>
<path d="M0 0 C7.23820173 0.34467627 11.91590189 2.10214991 18 6 C17.34 6.66 16.68 7.32 16 8 C12.74003803 6.73807924 9.52091321 5.38686248 6.3125 4 C5.54550781 3.67 4.77851563 3.34 3.98828125 3 C2 2 2 2 0 0 Z " fill="#5CACA1" transform="translate(305,301)"/>
<path d="M0 0 C3.38147659 1.44920425 5.45737085 3.37261655 8 6 C8.66 6.33 9.32 6.66 10 7 C9.525625 7.4125 9.05125 7.825 8.5625 8.25 C6.82100687 10.2004723 6.53446781 11.48852019 6 14 C4.99515796 12.04414675 3.99626195 10.08523763 3 8.125 C2.1646875 6.48917969 2.1646875 6.48917969 1.3125 4.8203125 C0 2 0 2 0 0 Z " fill="#5FB3A3" transform="translate(509,334)"/>
<path d="M0 0 C5.19644079 1.59890486 10.06612142 3.74138003 15 6 C15 6.66 15 7.32 15 8 C14.01 8 13.02 8 12 8 C11.67 8.99 11.34 9.98 11 11 C10.34 10.01 9.68 9.02 9 8 C9.33 7.34 9.66 6.68 10 6 C9.36191406 5.81824219 8.72382813 5.63648438 8.06640625 5.44921875 C7.24011719 5.19785156 6.41382813 4.94648438 5.5625 4.6875 C4.73878906 4.44386719 3.91507813 4.20023438 3.06640625 3.94921875 C2.04353516 3.47935547 2.04353516 3.47935547 1 3 C0.67 2.01 0.34 1.02 0 0 Z " fill="#49A897" transform="translate(169,180)"/>
<path d="M0 0 C2.64 0 5.28 0 8 0 C4.85488067 2.57672427 1.67836053 4.17392493 -2.0625 5.75 C-3.62677734 6.42289063 -3.62677734 6.42289063 -5.22265625 7.109375 C-8 8 -8 8 -11 7 C-10.67 6.34 -10.34 5.68 -10 5 C-8.35 5 -6.7 5 -5 5 C-5 4.34 -5 3.68 -5 3 C-3.35 3 -1.7 3 0 3 C0 2.01 0 1.02 0 0 Z " fill="#71BAAD" transform="translate(80,123)"/>
<path d="M0 0 C-3.51187196 2.40814077 -5.72656908 3.36629408 -10 3 C-10.66 4.32 -11.32 5.64 -12 7 C-14.31 6.67 -16.62 6.34 -19 6 C-18 4 -18 4 -16.109375 3.21875 C-14.94148438 2.86296875 -14.94148438 2.86296875 -13.75 2.5 C-11.13135702 1.68660218 -8.69822294 0.86587686 -6.1875 -0.25 C-3.67745434 -1.11058708 -2.45597016 -0.90961858 0 0 Z " fill="#64B5A7" transform="translate(350,310)"/>
<path d="M0 0 C0.33 0.66 0.66 1.32 1 2 C2.32 2 3.64 2 5 2 C5 1.34 5 0.68 5 0 C6.65 0 8.3 0 10 0 C7.13942468 2.31097404 4.41372871 3.82929391 1 5.1875 C0.154375 5.53167969 -0.69125 5.87585938 -1.5625 6.23046875 C-4 7 -4 7 -8 7 C-8 6.34 -8 5.68 -8 5 C-6.35 5 -4.7 5 -3 5 C-3 4.34 -3 3.68 -3 3 C-2.34 3 -1.68 3 -1 3 C-0.67 2.01 -0.34 1.02 0 0 Z " fill="#67B6A7" transform="translate(311,156)"/>
<path d="M0 0 C-0.33 3.3 -0.66 6.6 -1 10 C-3.6855594 7.3144406 -4.06049974 4.62378672 -5 1 C-6.94999129 1.19471111 -6.94999129 1.19471111 -9 2 C-10.28436734 3.9837767 -10.28436734 3.9837767 -11 6 C-11.33 4.02 -11.66 2.04 -12 0 C-7.73499324 -1.42166892 -4.44646526 -0.57997373 0 0 Z " fill="#5FB2A5" transform="translate(558,314)"/>
<path d="M0 0 C-2.83636599 1.89091066 -4.20913229 2.3902577 -7.4375 3 C-9.92425555 3.47126332 -11.81181994 3.89597724 -14.03515625 5.125 C-16.45215834 6.20135878 -17.55740845 5.87235412 -20 5 C-13.16076141 1.80835533 -7.61554118 -0.73226358 0 0 Z " fill="#6DB8AA" transform="translate(275,38)"/>
<path d="M0 0 C0.33 0 0.66 0 1 0 C1 5.28 1 10.56 1 16 C1.99 16 2.98 16 4 16 C4 14.02 4 12.04 4 10 C4.33 10 4.66 10 5 10 C5 12.97 5 15.94 5 19 C3.35 18.67 1.7 18.34 0 18 C-1.30062431 14.18483536 -0.89369853 10.72438237 -0.5625 6.75 C-0.46066406 5.48671875 -0.35882813 4.2234375 -0.25390625 2.921875 C-0.17011719 1.95765625 -0.08632813 0.9934375 0 0 Z " fill="#2C9685" transform="translate(41,227)"/>
<path d="M0 0 C0.99 0 1.98 0 3 0 C3 0.66 3 1.32 3 2 C-5.06524596 5.39589303 -12.38261147 5.30654742 -21 5 C-21 4.67 -21 4.34 -21 4 C-15.06 3.505 -15.06 3.505 -9 3 C-9 2.67 -9 2.34 -9 2 C-6.03 2 -3.06 2 0 2 C0 1.34 0 0.68 0 0 Z " fill="#91D4CC" transform="translate(565,241)"/>
<path d="M0 0 C0.99 0.33 1.98 0.66 3 1 C3 1.66 3 2.32 3 3 C3.66 3.33 4.32 3.66 5 4 C4.09507812 4.39832031 4.09507812 4.39832031 3.171875 4.8046875 C2.37265625 5.15789062 1.5734375 5.51109375 0.75 5.875 C-0.03890625 6.22304687 -0.8278125 6.57109375 -1.640625 6.9296875 C-3.15305067 7.61578789 -4.64624372 8.34705681 -6.109375 9.1328125 C-8 10 -8 10 -11 10 C-10.67 9.01 -10.34 8.02 -10 7 C-7.78515625 6.05078125 -7.78515625 6.05078125 -5.0625 5.3125 C-3.71865234 4.93544922 -3.71865234 4.93544922 -2.34765625 4.55078125 C0 4 0 4 2 4 C1.34 2.68 0.68 1.36 0 0 Z " fill="#55B099" transform="translate(167,82)"/>
<path d="M0 0 C-1.45076705 4.11050664 -3.34245725 7.53714127 -6 11 C-6.99 11 -7.98 11 -9 11 C-8.40300869 7.66864109 -7.27987719 5.78724333 -5.0625 3.25 C-4.53785156 2.63640625 -4.01320312 2.0228125 -3.47265625 1.390625 C-2 0 -2 0 0 0 Z " fill="#59AD9D" transform="translate(249,49)"/>
<path d="M0 0 C6.31115276 -0.36410497 6.31115276 -0.36410497 9.1875 1.15625 C11.61949449 3.63017543 11.58902167 5.2667105 11.75 8.6875 C11.80671875 9.68136719 11.8634375 10.67523438 11.921875 11.69921875 C11.96054688 12.83810547 11.96054688 12.83810547 12 14 C9.70366176 10.55549263 9.45983515 8.06187717 9 4 C6.03 3.01 3.06 2.02 0 1 C0 0.67 0 0.34 0 0 Z " fill="#66B8AD" transform="translate(224,81)"/>
<path d="M0 0 C0.66 0 1.32 0 2 0 C2 1.98 2 3.96 2 6 C4.44480079 5.81171228 4.44480079 5.81171228 7 5 C8.36020151 3.03241727 8.36020151 3.03241727 9 1 C9 3.31 9 5.62 9 8 C6.03 8 3.06 8 0 8 C0 5.36 0 2.72 0 0 Z " fill="#439C8C" transform="translate(547,73)"/>
<path d="M0 0 C0.66 0 1.32 0 2 0 C1.47799942 5.22000584 -0.20904902 9.58713788 -3 14 C-3.99 14.495 -3.99 14.495 -5 15 C-4.67 12.69 -4.34 10.38 -4 8 C-3.34 8 -2.68 8 -2 8 C-1.855625 6.865625 -1.71125 5.73125 -1.5625 4.5625 C-1 1 -1 1 0 0 Z " fill="#68B8A9" transform="translate(592,212)"/>
<path d="M0 0 C-0.969375 0.61875 -1.93875 1.2375 -2.9375 1.875 C-6.02835362 3.65678846 -6.02835362 3.65678846 -7 6 C-9.3140622 6.73075648 -11.64828869 7.40138258 -14 8 C-14 8.66 -14 9.32 -14 10 C-14.66 9.67 -15.32 9.34 -16 9 C-5.95620438 -1.98540146 -5.95620438 -1.98540146 0 0 Z " fill="#6EB6A4" transform="translate(284,304)"/>
<path d="M0 0 C0.721875 0.00257813 1.44375 0.00515625 2.1875 0.0078125 C2.909375 0.00523437 3.63125 0.00265625 4.375 0 C6.1875 0.1328125 6.1875 0.1328125 7.1875 1.1328125 C7.22830783 3.13239614 7.23004356 5.13326504 7.1875 7.1328125 C6.795625 6.4728125 6.40375 5.8128125 6 5.1328125 C4.33333333 2.84114583 4.33333333 2.84114583 1.5 2.8828125 C0.736875 2.9653125 -0.02625 3.0478125 -0.8125 3.1328125 C-1.1425 5.1128125 -1.4725 7.0928125 -1.8125 9.1328125 C-2.4725 8.8028125 -3.1325 8.4728125 -3.8125 8.1328125 C-2.80356083 0.20543334 -2.80356083 0.20543334 0 0 Z " fill="#73BEB1" transform="translate(46.8125,233.8671875)"/>
<path d="M0 0 C0.66 0.33 1.32 0.66 2 1 C0.76302083 2.46484375 -0.47395833 3.9296875 -1.7109375 5.39453125 C-2.89201099 6.8655046 -3.95358529 8.43037794 -5 10 C-7.625 10.6875 -7.625 10.6875 -10 11 C-9.67 10.01 -9.34 9.02 -9 8 C-8.34 8 -7.68 8 -7 8 C-6.773125 7.4225 -6.54625 6.845 -6.3125 6.25 C-4.66961977 3.4336339 -2.60466773 1.91922886 0 0 Z " fill="#78BCAE" transform="translate(25,195)"/>
<path d="M0 0 C0.84755859 0.00322266 1.69511719 0.00644531 2.56835938 0.00976562 C3.8899707 0.02233398 3.8899707 0.02233398 5.23828125 0.03515625 C6.57729492 0.04192383 6.57729492 0.04192383 7.94335938 0.04882812 C10.14590112 0.06060642 12.34830724 0.07705461 14.55078125 0.09765625 C14.55078125 0.42765625 14.55078125 0.75765625 14.55078125 1.09765625 C9.27078125 1.09765625 3.99078125 1.09765625 -1.44921875 1.09765625 C-1.44921875 1.75765625 -1.44921875 2.41765625 -1.44921875 3.09765625 C-4.08921875 3.09765625 -6.72921875 3.09765625 -9.44921875 3.09765625 C-6.49480764 0.14324514 -3.99272102 -0.02679679 0 0 Z " fill="#66B0A2" transform="translate(544.44921875,37.90234375)"/>
<path d="M0 0 C1.22357035 3.67071105 0.62076669 4.53394752 -0.875 8 C-2.00802398 10.6622102 -3.08438098 13.25314293 -4 16 C-3.34 16.33 -2.68 16.66 -2 17 C-2.99 17 -3.98 17 -5 17 C-5 14.36 -5 11.72 -5 9 C-4.34 9 -3.68 9 -3 9 C-3 6.69 -3 4.38 -3 2 C-2.01 2 -1.02 2 0 2 C0 1.34 0 0.68 0 0 Z " fill="#62B6A6" transform="translate(296,337)"/>
<path d="M0 0 C-0.99 0.33 -1.98 0.66 -3 1 C-3 1.66 -3 2.32 -3 3 C-5.31 3 -7.62 3 -10 3 C-10.66 4.32 -11.32 5.64 -12 7 C-12 6.34 -12 5.68 -12 5 C-13.32 4.67 -14.64 4.34 -16 4 C-14.274773 3.32320342 -12.54461061 2.65898 -10.8125 2 C-9.84957031 1.62875 -8.88664062 1.2575 -7.89453125 0.875 C-5.07817642 0.02363228 -2.91835561 -0.17072647 0 0 Z " fill="#56AFA2" transform="translate(44,190)"/>
<path d="M0 0 C0.66 0.33 1.32 0.66 2 1 C1.67 1.99 1.34 2.98 1 4 C0.01 4 -0.98 4 -2 4 C-2.12375 4.7425 -2.2475 5.485 -2.375 6.25 C-2.95486701 8.80141485 -3.73708739 10.7267573 -5 13 C-5.66 13 -6.32 13 -7 13 C-5.74875245 7.31251115 -3.95897432 4.27152492 0 0 Z " fill="#71B7AC" transform="translate(265,316)"/>
<path d="M0 0 C0.66 0.33 1.32 0.66 2 1 C1.360625 1.4125 0.72125 1.825 0.0625 2.25 C-2.20990931 4.17810487 -2.60196439 5.11424181 -3 8 C-3.99 8 -4.98 8 -6 8 C-6.66 7.34 -7.32 6.68 -8 6 C-8.66 5.67 -9.32 5.34 -10 5 C-8.38007835 4.13624104 -6.75388139 3.28424146 -5.125 2.4375 C-4.22007812 1.96183594 -3.31515625 1.48617187 -2.3828125 0.99609375 C-1.20332031 0.50302734 -1.20332031 0.50302734 0 0 Z " fill="#59B0A1" transform="translate(335,135)"/>
<path d="M0 0 C1.1171875 1.703125 1.1171875 1.703125 2 4 C1.3203125 6.359375 1.3203125 6.359375 0.125 8.75 C-0.26429688 9.54921875 -0.65359375 10.3484375 -1.0546875 11.171875 C-1.36664062 11.77515625 -1.67859375 12.3784375 -2 13 C-2.33 13 -2.66 13 -3 13 C-4.125 6.25 -4.125 6.25 -3 4 C-2.01 4 -1.02 4 0 4 C0 2.68 0 1.36 0 0 Z " fill="#5EB2A1" transform="translate(591,93)"/>
<path d="M0 0 C0.33 0.66 0.66 1.32 1 2 C-0.75864246 4.1793144 -1.69396 4.93686419 -4.48046875 5.51171875 C-5.82044922 5.59873047 -5.82044922 5.59873047 -7.1875 5.6875 C-8.08855469 5.75324219 -8.98960937 5.81898437 -9.91796875 5.88671875 C-10.60503906 5.92410156 -11.29210937 5.96148437 -12 6 C-8.18969926 2.93631224 -4.58727572 1.6055465 0 0 Z " fill="#66B5A8" transform="translate(157,78)"/>
<path d="M0 0 C3.69208738 3.29650658 5.86616894 6.57427631 8 11 C7.75 13.4375 7.75 13.4375 7 15 C4.82637677 12.35384998 3.65000775 10.35837336 3 7 C2.67 6.01 2.34 5.02 2 4 C1.34 4 0.68 4 0 4 C0 2.68 0 1.36 0 0 Z " fill="#60B1A1" transform="translate(310,52)"/>
<path d="M0 0 C0.66 0 1.32 0 2 0 C2 1.32 2 2.64 2 4 C-0.5 5.625 -0.5 5.625 -3 7 C-3 7.66 -3 8.32 -3 9 C-3.99 9 -4.98 9 -6 9 C-6 7.35 -6 5.7 -6 4 C-5.38125 3.71125 -4.7625 3.4225 -4.125 3.125 C-1.86674235 2.06279958 -1.86674235 2.06279958 0 0 Z " fill="#2AA08A" transform="translate(103,330)"/>
<path d="M0 0 C0.33 0.66 0.66 1.32 1 2 C-3.95 4.475 -3.95 4.475 -9 7 C-8.39816251 4.97954558 -7.72693904 2.97888961 -7 1 C-4.53721199 -0.231394 -2.7204945 -0.07159196 0 0 Z " fill="#52AE9E" transform="translate(76,266)"/>
<path d="M0 0 C1.18771723 3.42943519 0.80226223 5.37784675 -0.4375 8.75 C-0.86869141 9.94882813 -0.86869141 9.94882813 -1.30859375 11.171875 C-1.53675781 11.77515625 -1.76492188 12.3784375 -2 13 C-2.66 13 -3.32 13 -4 13 C-3.55966813 7.80408388 -3.11696661 4.33664919 0 0 Z " fill="#69B0A4" transform="translate(10,212)"/>
<path d="M0 0 C0.99 0.66 1.98 1.32 3 2 C2.67 2.66 2.34 3.32 2 4 C-1.92141595 5.03802187 -5.98489604 5.4489073 -10 6 C-7.30574902 2.67180762 -3.99171426 1.35433162 0 0 Z " fill="#55AD9E" transform="translate(56,123)"/>
<path d="M0 0 C1.98 0.66 3.96 1.32 6 2 C6.33 3.65 6.66 5.3 7 7 C7.639375 7.103125 8.27875 7.20625 8.9375 7.3125 C9.618125 7.539375 10.29875 7.76625 11 8 C11.33 8.99 11.66 9.98 12 11 C11.01 10.67 10.02 10.34 9 10 C9 9.34 9 8.68 9 8 C8.39671875 7.90847656 7.7934375 7.81695312 7.171875 7.72265625 C4.46742737 6.82279508 3.7917686 5.79297981 2.25 3.4375 C1.82203125 2.79683594 1.3940625 2.15617187 0.953125 1.49609375 C0.48132813 0.75552734 0.48132813 0.75552734 0 0 Z " fill="#6FB8AC" transform="translate(516,107)"/>
<path d="M0 0 C0.66 0.33 1.32 0.66 2 1 C1.67 1.66 1.34 2.32 1 3 C1.66 3.33 2.32 3.66 3 4 C0.06171403 6.50298434 -2.17902761 7.46930939 -6 8 C-4.02 5.36 -2.04 2.72 0 0 Z " fill="#54AF9B" transform="translate(522,48)"/>
<path d="M0 0 C0.33 0.99 0.66 1.98 1 3 C-0.43359375 5.69921875 -0.43359375 5.69921875 -2.4375 8.6875 C-3.42556641 10.17830078 -3.42556641 10.17830078 -4.43359375 11.69921875 C-5.20896484 12.83810547 -5.20896484 12.83810547 -6 14 C-7.33332095 11.3333581 -6.67102033 9.83319697 -6 7 C-5.01 7 -4.02 7 -3 7 C-2.814375 6.1028125 -2.814375 6.1028125 -2.625 5.1875 C-2 3 -2 3 0 0 Z " fill="#68B9A9" transform="translate(591,338)"/>
<path d="M0 0 C3.875 1.75 3.875 1.75 5 4 C5.0716735 6.55157655 5.09308442 9.07472971 5.0625 11.625 C5.05798828 12.33140625 5.05347656 13.0378125 5.04882812 13.765625 C5.03703875 15.51045275 5.01910324 17.255237 5 19 C4.67 19 4.34 19 4 19 C4 14.38 4 9.76 4 5 C3.01 5 2.02 5 1 5 C0.67 3.35 0.34 1.7 0 0 Z " fill="#60B4AD" transform="translate(357,127)"/>
<path d="M0 0 C1.41965142 0.42771549 2.8356224 0.86765543 4.25 1.3125 C5.43335937 1.67794922 5.43335937 1.67794922 6.640625 2.05078125 C9 3 9 3 13 6 C9.37 5.67 5.74 5.34 2 5 C1.34 3.35 0.68 1.7 0 0 Z " fill="#61B1A4" transform="translate(111,154)"/>
<path d="M0 0 C0 0.99 0 1.98 0 3 C-0.99 3 -1.98 3 -3 3 C-3 3.66 -3 4.32 -3 5 C-5.64 5 -8.28 5 -11 5 C-8.12934225 2.12934225 -4.13678472 0 0 0 Z " fill="#5CB09E" transform="translate(304,150)"/>
<path d="M0 0 C1.32 0.33 2.64 0.66 4 1 C2.71186658 1.83878455 1.41936744 2.67086783 0.125 3.5 C-0.59429688 3.9640625 -1.31359375 4.428125 -2.0546875 4.90625 C-4 6 -4 6 -6 6 C-6 4.35 -6 2.7 -6 1 C-3.03 1.495 -3.03 1.495 0 2 C0 1.34 0 0.68 0 0 Z " fill="#5DB2A1" transform="translate(577,114)"/>
<path d="M0 0 C3.72433382 1.2125738 7.37802806 2.50859979 11 4 C9.35 5.32 7.7 6.64 6 8 C6 6.68 6 5.36 6 4 C4.35 4 2.7 4 1 4 C0.67 2.68 0.34 1.36 0 0 Z " fill="#59B1A1" transform="translate(321,111)"/>
<path d="M0 0 C0.66 0.33 1.32 0.66 2 1 C1.01 1.33 0.02 1.66 -1 2 C-1.33 2.99 -1.66 3.98 -2 5 C-4.60242414 6.64820195 -5.86248779 7 -9 7 C-9 6.01 -9 5.02 -9 4 C-7.54618103 3.30300448 -6.08677047 2.61766134 -4.625 1.9375 C-3.40683594 1.36322266 -3.40683594 1.36322266 -2.1640625 0.77734375 C-1.44992188 0.52082031 -0.73578125 0.26429687 0 0 Z " fill="#66B2A5" transform="translate(107,100)"/>
<path d="M0 0 C0.99 0.33 1.98 0.66 3 1 C3 1.99 3 2.98 3 4 C3.99 4 4.98 4 6 4 C6 6.64 6 9.28 6 12 C3.32098068 9.68118495 2.33795597 7.68185532 1.3125 4.3125 C1.06113281 3.50425781 0.80976563 2.69601563 0.55078125 1.86328125 C0.36902344 1.24839844 0.18726563 0.63351563 0 0 Z " fill="#63B3A6" transform="translate(510,95)"/>
<path d="M0 0 C1.65 0 3.3 0 5 0 C5.66 2.31 6.32 4.62 7 7 C7.66 7 8.32 7 9 7 C8.67 7.99 8.34 8.98 8 10 C8 9.34 8 8.68 8 8 C7.34 8 6.68 8 6 8 C4 5 4 5 4 2 C2.68 2.33 1.36 2.66 0 3 C0 2.01 0 1.02 0 0 Z " fill="#6CBBAF" transform="translate(256,361)"/>
<path d="M0 0 C0.99 0 1.98 0 3 0 C1.52307692 6.52307692 1.52307692 6.52307692 -1.125 8.9375 C-1.74375 9.288125 -2.3625 9.63875 -3 10 C-3.33 9.01 -3.66 8.02 -4 7 C-3.01 6.67 -2.02 6.34 -1 6 C-0.67 4.02 -0.34 2.04 0 0 Z " fill="#49A894" transform="translate(585,223)"/>
<path d="M0 0 C0.66 0.33 1.32 0.66 2 1 C0.02 1.99 0.02 1.99 -2 3 C-2 3.66 -2 4.32 -2 5 C-8.96428571 7.27678571 -8.96428571 7.27678571 -13 6 C-10.87959258 4.96966118 -8.75352092 3.95097146 -6.625 2.9375 C-5.44164063 2.36902344 -4.25828125 1.80054687 -3.0390625 1.21484375 C-2.03617188 0.81394531 -1.03328125 0.41304688 0 0 Z " fill="#71BBAB" transform="translate(71,116)"/>
<path d="M0 0 C0 0.66 0 1.32 0 2 C-2.30276574 4.21747812 -3.52480092 4.96760006 -6.75 5.1875 C-7.86375 5.0946875 -7.86375 5.0946875 -9 5 C-9 4.01 -9 3.02 -9 2 C-3.375 0 -3.375 0 0 0 Z " fill="#27A38C" transform="translate(190,67)"/>
<path d="M0 0 C0.33 0 0.66 0 1 0 C1 4.29 1 8.58 1 13 C-1.81870287 10.18129713 -1.7303841 7.90943055 -2 4 C-1.0625 1.5625 -1.0625 1.5625 0 0 Z " fill="#A3B9AF" transform="translate(608,43)"/>
<path d="M0 0 C0.268125 0.598125 0.53625 1.19625 0.8125 1.8125 C1.98493467 3.97224808 3.19369282 5.35790256 5 7 C4.01 7.495 4.01 7.495 3 8 C1.0546875 7.22265625 1.0546875 7.22265625 -1.125 6.0625 C-1.84945313 5.68222656 -2.57390625 5.30195313 -3.3203125 4.91015625 C-3.87460937 4.60980469 -4.42890625 4.30945313 -5 4 C-4.0409375 3.8453125 -4.0409375 3.8453125 -3.0625 3.6875 C-2.381875 3.460625 -1.70125 3.23375 -1 3 C-0.67 2.01 -0.34 1.02 0 0 Z " fill="#61B5A5" transform="translate(277,376)"/>
<path d="M0 0 C-1.41478135 0.64995297 -2.83191487 1.29478722 -4.25 1.9375 C-5.03890625 2.29714844 -5.8278125 2.65679687 -6.640625 3.02734375 C-8.75823698 3.90033279 -10.76669362 4.51338508 -13 5 C-12 2 -12 2 -9 0 C-5.40545095 -0.82375082 -3.53372717 -1.17790906 0 0 Z " fill="#64B2A5" transform="translate(233,375)"/>
<path d="M0 0 C0.66 0 1.32 0 2 0 C2 0.66 2 1.32 2 2 C1.01 2.495 1.01 2.495 0 3 C-0.65213292 5.02463255 -0.65213292 5.02463255 -1 7 C-2.32 7.33 -3.64 7.66 -5 8 C-5 8.66 -5 9.32 -5 10 C-5.66 10 -6.32 10 -7 10 C-5.32598022 6.04322598 -2.86850715 3.15535787 0 0 Z " fill="#71BBAC" transform="translate(521,290)"/>
<path d="M0 0 C1.17539996 0.92652701 2.34010577 1.86663387 3.5 2.8125 C4.1496875 3.33457031 4.799375 3.85664063 5.46875 4.39453125 C7 6 7 6 7 9 C6.34 8.67 5.68 8.34 5 8 C5 7.34 5 6.68 5 6 C3.35 6 1.7 6 0 6 C0 4.02 0 2.04 0 0 Z " fill="#53AB9C" transform="translate(76,199)"/>
<path d="M0 0 C2.97 0.33 5.94 0.66 9 1 C9.33 1.99 9.66 2.98 10 4 C10.99 4 11.98 4 13 4 C13 4.66 13 5.32 13 6 C3.40546697 3.10933941 3.40546697 3.10933941 0 0 Z " fill="#60B1A1" transform="translate(157,188)"/>
<path d="M0 0 C4 0 4 0 6 1.875 C6.66 2.57625 7.32 3.2775 8 4 C10.13309192 5.23512079 10.13309192 5.23512079 12 6 C11.01 6.495 11.01 6.495 10 7 C7.3984375 6.00390625 7.3984375 6.00390625 4.375 4.5625 C3.37210937 4.08941406 2.36921875 3.61632812 1.3359375 3.12890625 C0.56507812 2.75636719 -0.20578125 2.38382813 -1 2 C-0.67 1.34 -0.34 0.68 0 0 Z " fill="#76B9AC" transform="translate(82,153)"/>
<path d="M0 0 C0.8971875 0.5259375 0.8971875 0.5259375 1.8125 1.0625 C0.54558493 1.73658308 -0.72620749 2.40150497 -2 3.0625 C-2.70769531 3.43375 -3.41539062 3.805 -4.14453125 4.1875 C-6.1875 5.0625 -6.1875 5.0625 -9.1875 5.0625 C-9.1875 4.4025 -9.1875 3.7425 -9.1875 3.0625 C-7.8675 3.0625 -6.5475 3.0625 -5.1875 3.0625 C-5.1875 2.0725 -5.1875 1.0825 -5.1875 0.0625 C-2.1875 -0.9375 -2.1875 -0.9375 0 0 Z " fill="#5CB19F" transform="translate(340.1875,145.9375)"/>
<path d="M0 0 C-0.375 2.4375 -0.375 2.4375 -1 5 C-1.99 5.495 -1.99 5.495 -3 6 C-3 5.01 -3 4.02 -3 3 C-3.5775 3.350625 -4.155 3.70125 -4.75 4.0625 C-7.39786506 5.16577711 -8.33185326 4.80156509 -11 4 C-9.5437455 3.32880451 -8.08492133 2.66318193 -6.625 2 C-5.81289062 1.62875 -5.00078125 1.2575 -4.1640625 0.875 C-2 0 -2 0 0 0 Z " fill="#5EB7A7" transform="translate(234,360)"/>
<path d="M0 0 C5.37305699 0.2642487 5.37305699 0.2642487 8 1 C10 3.5625 10 3.5625 11 6 C6.48986609 5.46939601 3.61621781 3.69113883 0 1 C0 0.67 0 0.34 0 0 Z " fill="#61B3A4" transform="translate(527,358)"/>
<path d="M0 0 C-0.99 0.33 -1.98 0.66 -3 1 C-3.33 1.66 -3.66 2.32 -4 3 C-4.99 3.66 -5.98 4.32 -7 5 C-7.66 3.68 -8.32 2.36 -9 1 C-5.64919071 -1.10976881 -3.77897651 -1.0497157 0 0 Z " fill="#25A289" transform="translate(154,84)"/>
<path d="M0 0 C2 3 2 3 2 5 C1.34 5 0.68 5 0 5 C-0.12375 5.969375 -0.2475 6.93875 -0.375 7.9375 C-0.58125 8.948125 -0.7875 9.95875 -1 11 C-1.99 11.495 -1.99 11.495 -3 12 C-2.14285714 3.42857143 -2.14285714 3.42857143 0 0 Z " fill="#65B3A6" transform="translate(512,61)"/>
<path d="M0 0 C9.59453303 0.59453303 9.59453303 0.59453303 13 4 C9.29218328 5.23593891 8.32489747 4.5678132 4.8125 3.0625 C3.91144531 2.68222656 3.01039062 2.30195313 2.08203125 1.91015625 C1.39496094 1.60980469 0.70789063 1.30945313 0 1 C0 0.67 0 0.34 0 0 Z " fill="#60B0A1" transform="translate(79,332)"/>
<path d="M0 0 C-0.33 0.99 -0.66 1.98 -1 3 C-1.99 3 -2.98 3 -4 3 C-4 3.66 -4 4.32 -4 5 C-6.375 5.625 -6.375 5.625 -9 6 C-9.66 5.34 -10.32 4.68 -11 4 C-9.5437455 3.32880451 -8.08492133 2.66318193 -6.625 2 C-5.81289062 1.62875 -5.00078125 1.2575 -4.1640625 0.875 C-2 0 -2 0 0 0 Z " fill="#66AEA0" transform="translate(185,66)"/>
<path d="M0 0 C2.97 0.99 5.94 1.98 9 3 C9 3.99 9 4.98 9 6 C5.32579134 5.69381595 4.21864487 5.24228216 1.6875 2.4375 C1.130625 1.633125 0.57375 0.82875 0 0 Z " fill="#6FBBB0" transform="translate(185,366)"/>
<path d="M0 0 C0.99 0.33 1.98 0.66 3 1 C2.67 3.64 2.34 6.28 2 9 C1.34 8.67 0.68 8.34 0 8 C0 5.36 0 2.72 0 0 Z " fill="#46A494" transform="translate(298,338)"/>
<path d="M0 0 C0.66 0.33 1.32 0.66 2 1 C1.375 2.9375 1.375 2.9375 0 5 C-3.125 5.75 -3.125 5.75 -6 6 C-4 4 -2 2 0 0 Z " fill="#59AEA1" transform="translate(529,284)"/>
<path d="M0 0 C2.475 0.495 2.475 0.495 5 1 C5.33 3.31 5.66 5.62 6 8 C1.2 4.55384615 1.2 4.55384615 0.1875 1.75 C0.125625 1.1725 0.06375 0.595 0 0 Z " fill="#71BEB0" transform="translate(11,255)"/>
<path d="M0 0 C0.33 0.99 0.66 1.98 1 3 C1.99 3 2.98 3 4 3 C4 3.99 4 4.98 4 6 C3.29875 5.71125 2.5975 5.4225 1.875 5.125 C-1.05452503 3.97866412 -4.00921653 2.97374346 -7 2 C-7 1.67 -7 1.34 -7 1 C-2.25 0 -2.25 0 0 0 Z " fill="#74BDB2" transform="translate(134,174)"/>
<path d="M0 0 C0 1.65 0 3.3 0 5 C-1.875 4.75 -1.875 4.75 -4 4 C-5.25 1.9375 -5.25 1.9375 -6 0 C-3 -1 -3 -1 0 0 Z " fill="#3FA494" transform="translate(532,115)"/>
<path d="M0 0 C0.99 0.33 1.98 0.66 3 1 C2.5359375 2.1446875 2.5359375 2.1446875 2.0625 3.3125 C1.32106407 5.18789677 0.63771783 7.08684652 0 9 C0.66 9.33 1.32 9.66 2 10 C1.01 10 0.02 10 -1 10 C-2.25 3.375 -2.25 3.375 0 0 Z " fill="#64B2A2" transform="translate(314,99)"/>
<path d="M0 0 C3.34373475 0.55728913 6.03312999 1.35173889 9 3 C8.01 3.66 7.02 4.32 6 5 C2.8125 4.125 2.8125 4.125 0 3 C0 2.01 0 1.02 0 0 Z " fill="#55AD9E" transform="translate(68,314)"/>
<path d="M0 0 C1.46067199 0.45082469 2.91848032 0.91093537 4.375 1.375 C5.18710938 1.63023437 5.99921875 1.88546875 6.8359375 2.1484375 C9 3 9 3 11 5 C10.01 5.33 9.02 5.66 8 6 C8 5.34 8 4.68 8 4 C5.69 3.67 3.38 3.34 1 3 C0.67 2.01 0.34 1.02 0 0 Z " fill="#63B2A5" transform="translate(146,170)"/>
<path d="M0 0 C-7.28571429 3.42857143 -7.28571429 3.42857143 -12 3 C-4.82142857 -1.78571429 -4.82142857 -1.78571429 0 0 Z " fill="#75BAAF" transform="translate(571,121)"/>
<path d="M0 0 C1.46726798 3.81489674 0.43336419 6.29011622 -1 10 C-2.32 9.01 -3.64 8.02 -5 7 C-4.34 7 -3.68 7 -3 7 C-2.690625 6.030625 -2.38125 5.06125 -2.0625 4.0625 C-1 1 -1 1 0 0 Z " fill="#59B5A5" transform="translate(319,90)"/>
<path d="M0 0 C0.66 0.33 1.32 0.66 2 1 C0.02 3.31 -1.96 5.62 -4 8 C-4.66 7.01 -5.32 6.02 -6 5 C-5.67 4.34 -5.34 3.68 -5 3 C-4.01 3.33 -3.02 3.66 -2 4 C-2 3.01 -2 2.02 -2 1 C-1.34 0.67 -0.68 0.34 0 0 Z " fill="#69B9AD" transform="translate(335,367)"/>
<path d="M0 0 C2.97 0 5.94 0 9 0 C5.68987756 3.31012244 4.46840411 3.50351065 0 4 C0 2.68 0 1.36 0 0 Z " fill="#6DB9AC" transform="translate(234,369)"/>
<path d="M0 0 C-0.8125 2.4375 -0.8125 2.4375 -2 5 C-2.99 5.33 -3.98 5.66 -5 6 C-5 4.35 -5 2.7 -5 1 C-3 0 -3 0 0 0 Z " fill="#4BAA97" transform="translate(83,259)"/>
<path d="M0 0 C0.33 0 0.66 0 1 0 C1.1799928 5.21979128 0.97094808 9.07262981 -1 14 C-1.33 14 -1.66 14 -2 14 C-2.21192221 8.80790596 -1.5912689 4.873261 0 0 Z " fill="#6FB2A3" transform="translate(91,236)"/>
<path d="M0 0 C3.71888239 0.50712033 6.73454239 1.11608215 10 3 C9.34 3.66 8.68 4.32 8 5 C2.25 3.375 2.25 3.375 0 0 Z " fill="#60ADA1" transform="translate(59,191)"/>
<path d="M0 0 C3.72433382 1.2125738 7.37802806 2.50859979 11 4 C11 4.33 11 4.66 11 5 C7.12459955 5.17615457 4.24484731 5.28341107 1 3 C0.67 2.01 0.34 1.02 0 0 Z " fill="#6AB5A8" transform="translate(169,180)"/>
<path d="M0 0 C0.66 0.33 1.32 0.66 2 1 C0 4 0 4 -2.1640625 4.51171875 C-2.97617188 4.56972656 -3.78828125 4.62773438 -4.625 4.6875 C-5.85089844 4.78611328 -5.85089844 4.78611328 -7.1015625 4.88671875 C-7.72804688 4.92410156 -8.35453125 4.96148437 -9 5 C-8.39414063 4.70480469 -7.78828125 4.40960938 -7.1640625 4.10546875 C-4.87751571 2.9824111 -4.87751571 2.9824111 -2.375 1.3125 C-1.59125 0.879375 -0.8075 0.44625 0 0 Z " fill="#7CBDB1" transform="translate(118,95)"/>
<path d="M0 0 C-0.33 1.32 -0.66 2.64 -1 4 C-3.375 4.625 -3.375 4.625 -6 5 C-6.66 4.34 -7.32 3.68 -8 3 C-2.25 0 -2.25 0 0 0 Z " fill="#5DAC9E" transform="translate(136,88)"/>
<path d="M0 0 C3.36720387 1.39332574 4.9859524 2.9789286 7 6 C5.02 6 3.04 6 1 6 C0.67 4.02 0.34 2.04 0 0 Z " fill="#7DBFB4" transform="translate(303,46)"/>
<path d="M0 0 C1.98 0 3.96 0 6 0 C6.33 1.65 6.66 3.3 7 5 C4.11424181 4.60196439 3.17810487 4.20990931 1.25 1.9375 C0.8375 1.298125 0.425 0.65875 0 0 Z " fill="#5AAE9D" transform="translate(522,234)"/>
<path d="M0 0 C-4.95 2.475 -4.95 2.475 -10 5 C-10.66 4.34 -11.32 3.68 -12 3 C-10.3789897 2.30314502 -8.75303934 1.61777139 -7.125 0.9375 C-6.22007812 0.55464844 -5.31515625 0.17179688 -4.3828125 -0.22265625 C-2 -1 -2 -1 0 0 Z " fill="#7ABDB1" transform="translate(280,162)"/>
<path d="M0 0 C0.99 0 1.98 0 3 0 C2.67 0.99 2.34 1.98 2 3 C0.68 3 -0.64 3 -2 3 C-2 3.66 -2 4.32 -2 5 C-3.32 5.33 -4.64 5.66 -6 6 C-4 4 -2 2 0 0 Z " fill="#71BAAF" transform="translate(530,42)"/>
<path d="M0 0 C2.97 0.99 5.94 1.98 9 3 C9 3.33 9 3.66 9 4 C6.69 4 4.38 4 2 4 C1.34 2.68 0.68 1.36 0 0 Z " fill="#61B7A7" transform="translate(169,359)"/>
<path d="M0 0 C-5.2734375 3.22265625 -5.2734375 3.22265625 -7 4 C-7.66 3.67 -8.32 3.34 -9 3 C-8.67 2.01 -8.34 1.02 -8 0 C-5.04215769 -1.22393475 -3.00272755 -0.96516243 0 0 Z " fill="#64B4A6" transform="translate(577,359)"/>
<path d="M0 0 C3.48539917 0.64544429 6.02819057 2.10134397 9 4 C8.34 4.66 7.68 5.32 7 6 C4.9375 5.8125 4.9375 5.8125 3 5 C2.67 4.01 2.34 3.02 2 2 C1.34 1.34 0.68 0.68 0 0 Z " fill="#6FB8AE" transform="translate(314,303)"/>
<path d="M0 0 C0 0.99 0 1.98 0 3 C-3.13498292 4.85776765 -5.37471432 5.20140476 -9 5 C-6.14693203 2.67527795 -3.45925163 1.2491742 0 0 Z " fill="#65AEA5" transform="translate(240,178)"/>
<path d="M0 0 C2.97 0.33 5.94 0.66 9 1 C9 1.99 9 2.98 9 4 C6.03 3.01 3.06 2.02 0 1 C0 0.67 0 0.34 0 0 Z " fill="#6AB3A4" transform="translate(146,362)"/>
<path d="M0 0 C1.32 0 2.64 0 4 0 C4.33 0.99 4.66 1.98 5 3 C3.02 3.99 3.02 3.99 1 5 C1 4.34 1 3.68 1 3 C0.34 2.67 -0.32 2.34 -1 2 C-0.67 1.34 -0.34 0.68 0 0 Z " fill="#4AAB98" transform="translate(576,353)"/>
<path d="M0 0 C0 0.99 0 1.98 0 3 C-0.66 3 -1.32 3 -2 3 C-2 3.66 -2 4.32 -2 5 C-4.97 4.505 -4.97 4.505 -8 4 C-5.33440687 2.22293791 -2.9719385 1.12451727 0 0 Z " fill="#68BAA9" transform="translate(255,350)"/>
<path d="M0 0 C1.32 0.33 2.64 0.66 4 1 C4.12375 1.639375 4.2475 2.27875 4.375 2.9375 C4.684375 3.9584375 4.684375 3.9584375 5 5 C5.66 5.33 6.32 5.66 7 6 C6.01 6 5.02 6 4 6 C0 1.54285714 0 1.54285714 0 0 Z " fill="#79BAB0" transform="translate(516,227)"/>
<path d="M0 0 C2.29633824 3.44450737 2.54016485 5.93812283 3 10 C2.67 9.34 2.34 8.68 2 8 C1.34 8 0.68 8 0 8 C0 5.36 0 2.72 0 0 Z " fill="#6EBEAB" transform="translate(89,216)"/>
<path d="M0 0 C0.66 0 1.32 0 2 0 C1.25 5.75 1.25 5.75 -1 8 C-1.04241723 5.66705225 -1.04092937 3.33297433 -1 1 C-0.67 0.67 -0.34 0.34 0 0 Z " fill="#74BAAE" transform="translate(592,212)"/>
<path d="M0 0 C0 0.99 0 1.98 0 3 C-4.455 3.495 -4.455 3.495 -9 4 C-3 0 -3 0 0 0 Z " fill="#68B2A2" transform="translate(313,146)"/>
<path d="M0 0 C2.97 0.99 5.94 1.98 9 3 C9 3.33 9 3.66 9 4 C3.375 4.25 3.375 4.25 0 2 C0 1.34 0 0.68 0 0 Z " fill="#65BAA8" transform="translate(348,123)"/>
<path d="M0 0 C2.64 0 5.28 0 8 0 C4.93882432 2.62386487 4.26826873 3 0 3 C0 2.01 0 1.02 0 0 Z " fill="#5BAFA0" transform="translate(80,123)"/>
<path d="M0 0 C-5.625 3 -5.625 3 -9 3 C-9 2.01 -9 1.02 -9 0 C-3.375 -1.125 -3.375 -1.125 0 0 Z " fill="#78BEB5" transform="translate(135,103)"/>
<path d="M0 0 C0.66 0 1.32 0 2 0 C2.53012738 1.28788008 3.0488329 2.58046678 3.5625 3.875 C3.99755859 4.95394531 3.99755859 4.95394531 4.44140625 6.0546875 C5 8 5 8 4 10 C1.80902348 6.6659053 0.56545837 3.95820859 0 0 Z " fill="#73B9AA" transform="translate(236,95)"/>
<path d="M0 0 C0.66 0.99 1.32 1.98 2 3 C0.98819642 6.77126791 0.32378142 7.78414572 -3 10 C-2.39009109 6.44219804 -1.4216319 3.3171411 0 0 Z " fill="#73B9AE" transform="translate(238,61)"/>
<path d="M0 0 C0.66 0.33 1.32 0.66 2 1 C1.34 2.32 0.68 3.64 0 5 C-1.32 5 -2.64 5 -4 5 C-3 2 -3 2 0 0 Z " fill="#68B8AA" transform="translate(253,44)"/>
<path d="M0 0 C2.64 0 5.28 0 8 0 C4.55549263 2.29633824 2.06187717 2.54016485 -2 3 C-1.34 2.67 -0.68 2.34 0 2 C0 1.34 0 0.68 0 0 Z " fill="#52AE9B" transform="translate(267,38)"/>
<path d="" fill="#FFFFFF" transform="translate(0,0)"/>
<path d="" fill="#FFFFFF" transform="translate(0,0)"/>
<path d="" fill="#FFFFFF" transform="translate(0,0)"/>
<path d="" fill="#FFFFFF" transform="translate(0,0)"/>
<path d="" fill="#FFFFFF" transform="translate(0,0)"/>
<path d="" fill="#FFFFFF" transform="translate(0,0)"/>
<path d="" fill="#FFFFFF" transform="translate(0,0)"/>
<path d="" fill="#FFFFFF" transform="translate(0,0)"/>
<path d="" fill="#FFFFFF" transform="translate(0,0)"/>
<path d="" fill="#FFFFFF" transform="translate(0,0)"/>
<path d="" fill="#FFFFFF" transform="translate(0,0)"/>
<path d="" fill="#FFFFFF" transform="translate(0,0)"/>
<path d="" fill="#FFFFFF" transform="translate(0,0)"/>
<path d="" fill="#FFFFFF" transform="translate(0,0)"/>
<path d="" fill="#FFFFFF" transform="translate(0,0)"/>
<path d="" fill="#FFFFFF" transform="translate(0,0)"/>
<path d="" fill="#FFFFFF" transform="translate(0,0)"/>
<path d="" fill="#FFFFFF" transform="translate(0,0)"/>
<path d="" fill="#FFFFFF" transform="translate(0,0)"/>
<path d="" fill="#FFFFFF" transform="translate(0,0)"/>
<path d="" fill="#FFFFFF" transform="translate(0,0)"/>
<path d="" fill="#FFFFFF" transform="translate(0,0)"/>
<path d="" fill="#FFFFFF" transform="translate(0,0)"/>
<path d="" fill="#FFFFFF" transform="translate(0,0)"/>
<path d="" fill="#FFFFFF" transform="translate(0,0)"/>
<path d="" fill="#FFFFFF" transform="translate(0,0)"/>
<path d="" fill="#FFFFFF" transform="translate(0,0)"/>
<path d="" fill="#FFFFFF" transform="translate(0,0)"/>
<path d="" fill="#FFFFFF" transform="translate(0,0)"/>
<path d="" fill="#FFFFFF" transform="translate(0,0)"/>
<path d="" fill="#FFFFFF" transform="translate(0,0)"/>
<path d="" fill="#FFFFFF" transform="translate(0,0)"/>
<path d="" fill="#FFFFFF" transform="translate(0,0)"/>
<path d="" fill="#FFFFFF" transform="translate(0,0)"/>
<path d="" fill="#FFFFFF" transform="translate(0,0)"/>
<path d="" fill="#FFFFFF" transform="translate(0,0)"/>
<path d="" fill="#FFFFFF" transform="translate(0,0)"/>
<path d="" fill="#FFFFFF" transform="translate(0,0)"/>
<path d="" fill="#FFFFFF" transform="translate(0,0)"/>
<path d="" fill="#FFFFFF" transform="translate(0,0)"/>
<path d="" fill="#FFFFFF" transform="translate(0,0)"/>
<path d="" fill="#FFFFFF" transform="translate(0,0)"/>
<path d="" fill="#FFFFFF" transform="translate(0,0)"/>
<path d="" fill="#FFFFFF" transform="translate(0,0)"/>
<path d="" fill="#FFFFFF" transform="translate(0,0)"/>
<path d="" fill="#FFFFFF" transform="translate(0,0)"/>
<path d="" fill="#FFFFFF" transform="translate(0,0)"/>
<path d="" fill="#FFFFFF" transform="translate(0,0)"/>
<path d="" fill="#FFFFFF" transform="translate(0,0)"/>
<path d="" fill="#FFFFFF" transform="translate(0,0)"/>
<path d="" fill="#FFFFFF" transform="translate(0,0)"/>
<path d="" fill="#FFFFFF" transform="translate(0,0)"/>
<path d="" fill="#FFFFFF" transform="translate(0,0)"/>
<path d="" fill="#FFFFFF" transform="translate(0,0)"/>
<path d="" fill="#FFFFFF" transform="translate(0,0)"/>
<path d="" fill="#FFFFFF" transform="translate(0,0)"/>
<path d="" fill="#FFFFFF" transform="translate(0,0)"/>
<path d="" fill="#FFFFFF" transform="translate(0,0)"/>
<path d="" fill="#FFFFFF" transform="translate(0,0)"/>
<path d="" fill="#FFFFFF" transform="translate(0,0)"/>
</svg>
